<?xml version="1.0" encoding="utf-8"?>
<!-- Generator: Adobe Illustrator 17.0.0, SVG Export Plug-In . SVG Version: 6.00 Build 0)  -->
<svg version="1.2" baseProfile="tiny" id="Layer_1" xmlns="http://www.w3.org/2000/svg" xmlns:xlink="http://www.w3.org/1999/xlink"
	 x="0px" y="0px" width="384.868px" height="178.671px" viewBox="0 0 384.868 178.671" xml:space="preserve">
<g>
	<path fill="#1E459B" d="M317.982,60.785c4.653-2.473,8.754-4.71,13.686-3.77c1.825,0.348,3.992,0.47,5.068,1.845
		c3.074,3.926,5.762,2.722,9.511,0.732c10.474-5.56,20.765-0.913,23.653,10.602c2.763,11.018,1.065,22.194,0.221,33.307
		c-0.208,2.742-2.492,2.215-4.125,2.552c-1.457,0.301-3,0.168-4.472,0.421c-2.828,0.487-3.617-0.169-3.25-3.352
		c1.085-9.411,2.443-18.889,0.616-28.355c-1.196-6.196-5.66-8.115-11.131-5.143c-2.256,1.226-3.218,2.763-3.124,5.551
		c0.285,8.483-0.08,16.991,0.297,25.468c0.191,4.315-1.568,5.302-5.399,5.45c-6.877,0.267-6.843,0.456-6.603-6.202
		c0.293-8.149,1.124-16.295,0.081-24.452c-0.517-4.044-1.416-7.79-6.567-7.766c-4.94,0.023-8.285,3.375-8.3,8.48
		c-0.024,8.158-0.108,16.337,0.437,24.466c0.264,3.942-0.947,5.458-4.634,5.582c-1.496,0.05-3.007,0.15-4.476,0.417
		c-2.302,0.42-2.826-0.483-2.722-2.688c0.626-13.166,0.016-26.318-0.949-39.445c-0.241-3.284,0.62-4.988,3.945-5.463
		c1.284-0.183,2.554-0.793,3.718-1.418C316.524,55.964,318.797,55.581,317.982,60.785z"/>
	<path fill="#1E459B" d="M177.413,50.394c-4.402-1.324-8.404-2.557-12.611-1.959c-3.577,0.509-6.899,1.593-8.212,5.495
		c-1.299,3.86,0.395,6.876,3.117,9.342c2.959,2.68,6.131,5.126,9.22,7.663c2.586,2.123,5.011,4.404,6.852,7.223
		c7.461,11.424,1.32,25.693-12.098,28.033c-1.956,0.341-3.999,0.515-5.972,0.37c-12.482-0.921-11.282-0.19-12.645-13.425
		c3.837,1.256,7.522,2.865,11.491,2.876c3.881,0.011,8.006-0.245,9.846-4.417c1.877-4.254-0.7-7.36-3.713-9.964
		c-3.653-3.156-7.562-6.02-11.161-9.233c-7.151-6.384-9.354-14.44-6.38-22.468c2.828-7.635,10.412-12.472,19.77-12.607
		C175.774,37.166,175.774,37.166,177.413,50.394z"/>
	<path fill="#1E459B" d="M298.44,81.69c0,6.652-0.128,13.308,0.064,19.954c0.075,2.586-0.606,4.633-3.23,4.27
		c-2.487-0.344-5.908,4.373-7.466-1.107c-0.53-1.865-1.45-0.766-2.139-0.444c-2.755,1.289-5.608,1.997-8.662,2.042
		c-8.914,0.132-15.106-4.267-17.042-12.962c-2.348-10.54-0.806-21.193-0.093-31.799c0.096-1.432,0.974-1.836,2.219-2.21
		c9.658-2.902,10.661-2.179,9.443,7.455c-0.858,6.791-1.231,13.603-0.698,20.409c0.572,7.307,5.189,10.122,12.164,8.03
		c3.049-0.914,4.186-2.542,4.031-5.764c-0.39-8.137-0.285-16.299-0.756-24.429c-0.177-3.058,0.384-4.312,3.615-5.001
		c8.933-1.903,8.844-2.099,8.635,7.09c-0.109,4.819-0.019,9.642-0.019,14.464C298.484,81.69,298.462,81.69,298.44,81.69z"/>
	<path fill="#1E459B" d="M217.368,94.96c0.713,9.904-0.518,11.286-9.855,11.527c-9.448,0.243-17.336-2.854-21.173-11.884
		c-4.433-10.436-4.028-20.992,3.396-30.11c6.378-7.832,15.298-8.631,24.612-6.987c2.006,0.354,4.205,8.933,2.744,10.409
		c-1.07,1.08-2.15,0.03-3.208-0.182c-12.267-2.455-20.377,5.229-18.482,17.523c1.386,8.99,7.959,13.078,17.68,10.954
		C214.524,95.893,215.923,95.386,217.368,94.96z"/>
	<path fill="#1E459B" d="M236.95,56.669c0,2.229,0,4.193,0,6.786c3.559-3.221,6.648-6.479,11.451-6.65
		c3.49-0.124,6.073,0.298,4.653,4.864c-0.489,1.573-0.652,3.265-0.812,4.918c-0.226,2.33-1.266,2.778-3.617,2.611
		c-8.051-0.573-11.777,2.982-11.691,10.967c0.077,7.159,0.195,14.329,0.7,21.465c0.23,3.252-0.647,4.651-3.895,4.622
		c-1.661-0.015-3.336,0.127-4.982,0.357c-2.248,0.313-2.861-0.618-2.819-2.781c0.263-13.661,0.111-27.32-0.644-40.965
		c-0.095-1.721,0.153-2.856,2.027-3.356C230.483,58.666,233.603,57.665,236.95,56.669z"/>
	<path fill="#F79A2E" d="M31.473,124.333c-5.644-0.035-10.071-4.574-9.957-10.206c0.114-5.595,4.742-9.971,10.375-9.81
		c5.356,0.152,9.729,4.627,9.751,9.977C41.664,119.848,37.086,124.368,31.473,124.333z"/>
	<path fill="#F79A2E" d="M49.888,91.694c-0.11,5.241-4.379,9.43-9.579,9.398c-5.142-0.031-9.422-4.385-9.419-9.582
		c0.003-5.423,4.53-9.837,9.867-9.621C46.038,82.104,50,86.358,49.888,91.694z"/>
	<path fill="#F79A2E" d="M58.244,85.941c-4.674,0.092-8.968-4.108-9.067-8.869c-0.099-4.772,3.974-8.869,8.863-8.915
		c5.087-0.048,8.879,3.651,8.928,8.707C67.015,81.79,63.118,85.844,58.244,85.941z"/>
	<path fill="#F79A2E" d="M81.066,64.584c4.538,0.129,7.977,3.831,7.892,8.497c-0.083,4.549-3.841,8.185-8.33,8.062
		c-4.513-0.124-7.975-3.859-7.885-8.508C72.831,68.047,76.545,64.455,81.066,64.584z"/>
	<path fill="#F79A2E" d="M109.884,79.208c-0.054,4.292-3.425,7.551-7.648,7.394c-4.043-0.15-7.23-3.347-7.303-7.327
		c-0.076-4.114,3.419-7.737,7.472-7.747C106.528,71.517,109.937,75.018,109.884,79.208z"/>
	<path fill="#F79A2E" d="M118.508,88.432c3.641,0.016,6.511,3.01,6.446,6.726c-0.066,3.779-2.917,6.481-6.75,6.28
		c-3.977-0.209-5.975-2.604-6.241-6.355C111.708,91.491,114.897,88.416,118.508,88.432z"/>
	<path fill="#F79A2E" d="M76.567,39.424c-4.119-0.337-6.208-2.629-6.426-6.444c-0.188-3.295,3.106-6.341,6.458-6.333
		c3.424,0.008,6.333,2.956,6.187,6.485C82.622,37.123,80.261,39.044,76.567,39.424z"/>
	<path fill="#F79A2E" d="M125.521,121.268c-3.683-0.24-6.092-2.155-6.274-5.803c-0.179-3.596,1.826-5.989,5.577-6.389
		c3.466-0.37,6.716,2.495,6.592,5.949C131.286,118.686,129.146,120.74,125.521,121.268z"/>
	<path fill="#F79A2E" d="M69.379,25.399c-4.076-0.273-6.418-2.11-6.536-5.853c-0.118-3.723,2.038-6.015,5.727-6.15
		c3.704-0.135,5.981,2.045,6.148,5.74C74.888,22.907,72.524,24.764,69.379,25.399z"/>
	<path fill="#F79A2E" d="M55.993,6.182c3.513,0.252,5.694,2.004,5.681,5.572c-0.013,3.537-2.137,5.537-5.645,5.533
		c-3.314-0.003-5.229-1.97-5.352-5.271C50.544,8.455,52.475,6.535,55.993,6.182z"/>
	<path fill="#F79A2E" d="M122.478,130.317c3.076,0.313,5.093,1.932,5.152,5.039c0.064,3.365-1.968,5.325-5.324,5.236
		c-3.114-0.082-4.987-2.034-4.901-5.158C117.489,132.368,119.373,130.633,122.478,130.317z"/>
	<path fill="#F79A2E" d="M41.319,6.14c3.275,0.145,5.219,1.993,5.161,5.256c-0.053,2.999-1.937,4.912-5.053,4.942
		c-3.369,0.032-5.326-1.997-5.264-5.221C36.22,8.17,38.065,6.311,41.319,6.14z"/>
	<path fill="#F79A2E" d="M27.831,22.307c-3-0.279-4.731-2.011-4.686-4.835c0.045-2.831,1.889-4.707,4.796-4.636
		c2.868,0.07,4.681,1.912,4.644,4.801C32.547,20.542,30.688,22.071,27.831,22.307z"/>
	<path fill="#F79A2E" d="M116.632,153.671c-0.612,2.736-1.869,4.617-4.717,4.479c-2.754-0.133-4.265-1.776-4.204-4.551
		c0.062-2.832,1.773-4.292,4.489-4.245C115.004,149.402,116.194,151.325,116.632,153.671z"/>
	<path fill="#F79A2E" d="M19.329,24.537c2.377,0.184,4.064,1.423,4.287,3.877c0.247,2.73-1.345,4.486-4.005,4.647
		c-2.76,0.167-4.36-1.653-4.376-4.285C15.22,26.362,16.779,24.889,19.329,24.537z"/>
	<path fill="#F79A2E" d="M95.825,159.59c2.586,0.57,4.225,2,3.962,4.763c-0.235,2.471-1.866,3.912-4.308,3.793
		c-2.42-0.118-3.994-1.651-3.996-4.15C91.481,161.247,93.241,159.943,95.825,159.59z"/>
	<path fill="#F79A2E" d="M20.868,42.172c-0.139,2.524-1.543,3.986-4.039,3.944c-2.257-0.038-3.744-1.525-3.76-3.761
		c-0.017-2.47,1.495-4.005,4.04-3.975C19.435,38.408,20.632,39.85,20.868,42.172z"/>
	<path fill="#F79A2E" d="M20.542,51.534c2.02,0.356,3.277,1.326,3.302,3.27c0.028,2.156-1.174,3.437-3.348,3.413
		c-1.942-0.022-3.114-1.332-3.18-3.145C17.239,52.942,18.716,51.903,20.542,51.534z"/>
	<path fill="#F79A2E" d="M31.788,65.113c-0.073,2.042-0.952,3.131-2.71,3.229c-1.792,0.1-2.856-1.005-2.947-2.679
		c-0.093-1.707,0.979-2.87,2.69-2.973C30.574,62.585,31.458,63.758,31.788,65.113z"/>
	<path fill="#F79A2E" d="M43.034,70.623c-0.255,1.785-1.248,2.764-3.036,2.58c-1.549-0.16-2.313-1.195-2.267-2.753
		c0.046-1.586,1.003-2.577,2.47-2.602C41.886,67.82,42.978,68.81,43.034,70.623z"/>
</g>
</svg>
