<svg id="Layer_1" data-name="Layer 1" xmlns="http://www.w3.org/2000/svg" viewBox="0 0 5396.06 1149.54"><defs><style>.cls-1{isolation:isolate;}.cls-2{fill:#ff9a15;}</style></defs><title>accelerate_logo</title><g class="cls-1"><g class="cls-1"><path d="M191.74,319.82H0V213.3H514.55V319.82H322.8v324.1H191.74Z"/></g><g class="cls-1"><path d="M597.83,213.3H969.06c76.18,0,109.75,6.46,134.29,27.12,25.18,20,36.8,56.81,36.8,114.92,0,80.06-19.37,111.69-74.25,124,53.59,9,69.73,31.64,68.43,96.84v67.79h-133V590.33c-.64-46.48-13.56-56.17-72.31-54.88H728.25V643.92H597.83ZM932.9,430.22c63.27,0,75.54-7.75,75.54-50.36,0-27.76-2.58-39.38-11-48.42-9.68-10.33-20.66-12.27-60-12.27H728.25v111Z"/></g><g class="cls-1"><path d="M1246,213.3h131.06V643.92H1246Z"/></g><g class="cls-1"><path d="M1489.42,213.3h457.09v97.49H1619.83v85.87h309.89v97.49H1619.83V643.92H1489.42Z"/></g><g class="cls-1"><path d="M2506.21,215.23C2572.7,227.5,2605,261.72,2614,330.8q3.87,26.15,3.87,104.59c0,103.94-11,145.91-47.78,176.25-25.82,22-62,32.28-124.6,34.86-23.24,1.29-80.7,1.94-122.66,1.94-102.65,0-154.95-1.94-180.77-7.1-47.78-8.39-75.54-26.47-91.68-58.1-16.78-31.64-20.66-63.27-20.66-157.53,0-72.31,1.29-90.39,9-119.44,12.27-45.84,37.44-70.37,85.87-84.57,36.15-10.33,75.54-12.91,189.16-12.91C2437.77,208.78,2475.86,210.07,2506.21,215.23ZM2184.69,329.51c-17.43,13.56-22.6,34.86-22.6,96.84,0,63.27,5.16,86.51,21.31,100.07,17.43,14.2,38.74,16.79,137.51,16.79,113,0,136.22-3.87,151.07-24.53,12.27-15.49,15.49-37.45,15.49-94.9,0-108.46-1.94-109.75-163.34-109.75C2227.95,314,2201.48,317.24,2184.69,329.51Z"/></g><g class="cls-1"><path d="M2721.2,213.3h371.22c76.18,0,109.75,6.46,134.29,27.12,25.18,20,36.8,56.81,36.8,114.92,0,80.06-19.37,111.69-74.25,124,53.59,9,69.73,31.64,68.43,96.84v67.79h-133V590.33c-.64-46.48-13.56-56.17-72.31-54.88H2851.61V643.92H2721.2Zm335.07,216.92c63.27,0,75.54-7.75,75.54-50.36,0-27.76-2.58-39.38-11-48.42-9.68-10.33-20.66-12.27-60-12.27H2851.61v111Z"/></g><g class="cls-1"><path d="M3369.39,213.3h131.06V374.05h68.43L3747.07,213.3H3927.2L3679.93,426.35l271.16,217.57H3760.63L3566.3,478.64h-65.85V643.92H3369.39Z"/></g></g><g class="cls-1"><g class="cls-1"><path d="M102.25,1063.77l-48.07,81.94H5.56L220.25,781.34H282l214.69,364.37H448.6l-48.07-81.94ZM251.39,811.93,123,1029.35H379.77Z"/></g><g class="cls-1"><path d="M999.25,1023.34v15.3c0,43.7-4.37,62.82-18.57,79.21-13.66,16.39-31.68,24-65,27.86-20.76,1.64-83,3.82-132.2,3.82-131.65,0-163.88-5.46-190.65-33.32-23.49-24-29-53-29-152.41,0-113.63,7.65-142.58,44.79-166.07,27.86-17.48,57.91-20.21,208.13-20.21,91.23,0,122.91,4.37,145.31,20.76,24.58,16.94,32.23,39.88,33.87,97.78H953.36v-9.29c0-64.46-15.3-71-168.25-71-174.81,0-175.9.55-175.9,148,0,83,3.82,109.26,19.12,125.1,17.48,18,45.34,22.4,147.49,22.4,163.89,0,180.82-6,180.82-67.19v-20.76Z"/></g><g class="cls-1"><path d="M1544.44,1023.34v15.3c0,43.7-4.37,62.82-18.57,79.21-13.66,16.39-31.68,24-65,27.86-20.76,1.64-83,3.82-132.2,3.82-131.65,0-163.88-5.46-190.65-33.32-23.49-24-29-53-29-152.41,0-113.63,7.65-142.58,44.79-166.07,27.86-17.48,57.91-20.21,208.13-20.21,91.23,0,122.91,4.37,145.31,20.76,24.58,16.94,32.23,39.88,33.87,97.78h-42.61v-9.29c0-64.46-15.3-71-168.25-71-174.81,0-175.9.55-175.9,148,0,83,3.82,109.26,19.12,125.1,17.48,18,45.34,22.4,147.49,22.4,163.89,0,180.82-6,180.82-67.19v-20.76Z"/><path d="M1664.63,781.34h362.73v36.6h-319V939.76h307.56v34.41H1708.33v134.93h321.76v36.6H1664.63Z"/><path d="M2144.81,781.34h43.7v327.77h289v36.6H2144.81Z"/><path d="M2572,781.34h362.73v36.6h-319V939.76h307.56v34.41H2615.69v134.93h321.76v36.6H2572Z"/></g><g class="cls-1"><path d="M3052.15,781.34H3352.6c55.17,0,80.85,7.1,100,27.86,14.75,16.39,22.4,44.25,22.4,83.58,0,59-13.66,79.76-58.45,90.14,37.15,7.1,51.35,26.22,51.35,68.29v94.51h-43.7v-69.38c1.09-62.82-14.75-78.12-78.12-77.57h-250.2v147h-43.7Zm283.52,183c74.84,0,94-14.75,94-73.75,0-57.91-19.67-72.65-96.69-72.65H3095.85v146.4Z"/></g><g class="cls-1"><path d="M3656.34,1063.77l-48.07,81.94h-48.62l214.69-364.37h61.73l214.69,364.37h-48.08l-48.07-81.94Zm149.13-251.83L3677.1,1029.35h256.75Z"/></g><g class="cls-1"><path d="M4208.08,817.94H4022.89v-36.6h413.54v36.6H4251.79v327.77h-43.7Z"/></g><g class="cls-1"><path d="M4532.58,781.34h362.73v36.6h-319V939.76h307.56v34.41H4576.28v134.93H4898v36.6H4532.58Z"/></g></g><rect class="cls-2" x="4421.98" y="205.01" width="98.98" height="436.98"/><rect class="cls-2" x="4731.08" y="205.01" width="98.98" height="436.98"/><rect class="cls-2" x="4875.45" y="205.01" width="98.98" height="436.98"/><polyline class="cls-2" points="4972.54 0 5396.06 423.52 4972.54 847.04"/><rect class="cls-2" x="4044" y="205.01" width="98.98" height="436.98"/><rect class="cls-2" x="4581.55" y="205.01" width="98.98" height="436.98"/><rect class="cls-2" x="4249.36" y="205.01" width="98.98" height="436.98"/></svg>