<svg id="owl" xmlns="http://www.w3.org/2000/svg" viewBox="0 0 341.4 82.1"><defs><style>.cls-1{fill:#fff;}.cls-2{fill:#3c1669;}.cls-3{fill:#5d24ad;}.cls-4{fill:#f60;}.cls-5{fill:#ae92d6;}</style></defs><title>humio_logo</title><path class="cls-1" d="M182.53,28.82V50.49c0,8.13-5.07,14.1-14.31,14.1s-14.38-6-14.38-14.1V28.82h-6.6V50.49c0,12.16,8.47,20.63,21,20.63s21-8.47,21-20.63V28.82Z"/><polygon class="cls-1" points="106.61 55.77 106.61 44.58 133 44.58 133 55.77 139.67 55.77 139.67 15.27 133 15.27 133 38.12 106.61 38.12 106.61 15.27 99.94 15.27 99.94 55.77 106.61 55.77"/><path class="cls-1" d="M202.88,55.77V32.36a11.74,11.74,0,1,1,23.48,0V55.77h6.74V32.36a11.74,11.74,0,1,1,23.48,0V55.77h6.6V32.36A18.22,18.22,0,0,0,244.77,14a17.58,17.58,0,0,0-15.14,8.27A17.22,17.22,0,0,0,214.55,14a18.28,18.28,0,0,0-18.48,18.41V55.77Z"/><path class="cls-1" d="M313.26,20a22,22,0,1,1-22,22,22,22,0,0,1,22-22m0-6.11A28.13,28.13,0,1,0,341.4,42a28.15,28.15,0,0,0-28.13-28.13Z"/><rect class="cls-1" x="271.51" y="28.82" width="6.74" height="26.95"/><path class="cls-1" d="M91,42.7h0c-.1-5.3-2.1-9.8-5.4-12.5a24.33,24.33,0,0,0,.3-3.8,21.59,21.59,0,0,0-1-6.6V3.5a2.34,2.34,0,0,0-.8-1.8,2.56,2.56,0,0,0-1.9-.6l-2.1.2c-6.6.6-13.5,1-20.4,1.3A40.15,40.15,0,0,0,45.51,0a40.57,40.57,0,0,0-14.2,2.6c-6.9-.3-13.8-.7-20.4-1.3l-2.1-.2a2.56,2.56,0,0,0-1.9.6,2.34,2.34,0,0,0-.8,1.8V19.9a20.7,20.7,0,0,0-1,6.6,25.31,25.31,0,0,0,.3,3.8C2.11,33,.11,37.5,0,42.8c-.3,13.3,8.3,25.6,8.6,26.1a2.36,2.36,0,0,0,2.4,1,2.66,2.66,0,0,0,2-1.7,23,23,0,0,1,1.6-3.7,39.61,39.61,0,0,0,30.8,14.8,39.16,39.16,0,0,0,30.8-14.8,23,23,0,0,1,1.6,3.7,2.49,2.49,0,0,0,2,1.7,2.23,2.23,0,0,0,2.4-1C82.71,68.3,91.31,56,91,42.7Z"/><path class="cls-2" d="M10.61,67.4s-8.5-12.1-8.2-24.6,12-16.9,17.2-7.5C26.51,47.5,13.51,58,10.61,67.4Z"/><path class="cls-2" d="M80.31,67.4s8.5-12.1,8.2-24.6-12-16.9-17.2-7.5C64.41,47.5,77.51,58,80.31,67.4Z"/><circle class="cls-3" cx="45.51" cy="39.5" r="34.8"/><path class="cls-2" d="M78.71,22.9h3.7V3.5l-2.1.2c-7,.6-14,1.1-21.1,1.3a37.28,37.28,0,0,0-13.8-2.7A35.37,35.37,0,0,0,31.61,5c-7.1-.3-14.1-.7-21.1-1.3l-2.1-.2V23h3.7a37.2,37.2,0,1,0,70.5,16.6A37,37,0,0,0,78.71,22.9Zm-33.2,50a33.4,33.4,0,1,1,33.4-33.4A33.46,33.46,0,0,1,45.51,72.9Z"/><path class="cls-1" d="M27.41,10.3a16.1,16.1,0,1,0,16.1,16.1A16.09,16.09,0,0,0,27.41,10.3Z"/><path class="cls-1" d="M63.51,10.3a16.1,16.1,0,1,0,16.1,16.1A16.09,16.09,0,0,0,63.51,10.3Z"/><path class="cls-4" d="M45.51,34.8a20.42,20.42,0,0,1-7.3,8.4l7.3,7.3,7.3-7.3A19.73,19.73,0,0,1,45.51,34.8Z"/><path class="cls-4" d="M29.61,71.5a1.16,1.16,0,0,0-1.2-1.2h-.8a1.16,1.16,0,0,0-1.2,1.2v8.4a1.16,1.16,0,0,0,1.2,1.2h.8a1.16,1.16,0,0,0,1.2-1.2Z"/><path class="cls-4" d="M18.11,79.9a1.16,1.16,0,0,0,1.2,1.2h.8a1.16,1.16,0,0,0,1.2-1.2V71.5a1.16,1.16,0,0,0-1.2-1.2h-.8a1.16,1.16,0,0,0-1.2,1.2Z"/><path class="cls-4" d="M24.21,70.3h-.8a1.16,1.16,0,0,0-1.2,1.2v8.4a1.16,1.16,0,0,0,1.2,1.2h.8a1.16,1.16,0,0,0,1.2-1.2V71.5A1.22,1.22,0,0,0,24.21,70.3Z"/><path id="owl_right_eye" data-name="owl right eye" d="M57.51,19.72a6.8,6.8,0,1,0,6.8,6.8A6.81,6.81,0,0,0,57.51,19.72Zm1.4,8.5a2.58,2.58,0,0,1-2.6-2.6,2.6,2.6,0,1,1,2.6,2.6Z"/><path class="cls-5" d="M63.51,6.6a19.83,19.83,0,0,0-18,11.6,19.9,19.9,0,1,0,0,16.6,19.87,19.87,0,1,0,18-28.2Zm-36.1,36a16.1,16.1,0,1,1,16.1-16.1A16.09,16.09,0,0,1,27.41,42.6Zm36.1,0a16.1,16.1,0,1,1,16.1-16.1A16.09,16.09,0,0,1,63.51,42.6Z"/><path class="cls-1" d="M28.41,69.3h-.8a2.14,2.14,0,0,0-1.7.8,2.14,2.14,0,0,0-1.7-.8h-.8a2.14,2.14,0,0,0-1.7.8,2.14,2.14,0,0,0-1.7-.8h-.8A2.22,2.22,0,0,0,17,71.5v8.4a2.22,2.22,0,0,0,2.2,2.2H20a2.14,2.14,0,0,0,1.7-.8,2.14,2.14,0,0,0,1.7.8h.8a2.14,2.14,0,0,0,1.7-.8,2.14,2.14,0,0,0,1.7.8h.8a2.22,2.22,0,0,0,2.2-2.2V71.5A2.22,2.22,0,0,0,28.41,69.3ZM20,81.1h-.8A1.16,1.16,0,0,1,18,79.9V71.5a1.16,1.16,0,0,1,1.2-1.2H20a1.16,1.16,0,0,1,1.2,1.2v8.4A1.16,1.16,0,0,1,20,81.1Zm4.2,0h-.8a1.16,1.16,0,0,1-1.2-1.2V71.5a1.16,1.16,0,0,1,1.2-1.2h.8a1.16,1.16,0,0,1,1.2,1.2v8.4A1.16,1.16,0,0,1,24.21,81.1Zm5.4-1.2a1.16,1.16,0,0,1-1.2,1.2h-.8a1.16,1.16,0,0,1-1.2-1.2V71.5a1.16,1.16,0,0,1,1.2-1.2h.8a1.16,1.16,0,0,1,1.2,1.2Z"/><path class="cls-4" d="M72.91,71.5a1.16,1.16,0,0,0-1.2-1.2h-.8a1.16,1.16,0,0,0-1.2,1.2v8.4a1.16,1.16,0,0,0,1.2,1.2h.8a1.16,1.16,0,0,0,1.2-1.2Z"/><path class="cls-4" d="M61.31,79.9a1.16,1.16,0,0,0,1.2,1.2h.8a1.16,1.16,0,0,0,1.2-1.2V71.5a1.16,1.16,0,0,0-1.2-1.2h-.8a1.16,1.16,0,0,0-1.2,1.2Z"/><path class="cls-4" d="M67.51,70.3h-.8a1.16,1.16,0,0,0-1.2,1.2v8.4a1.16,1.16,0,0,0,1.2,1.2h.8a1.16,1.16,0,0,0,1.2-1.2V71.5A1.29,1.29,0,0,0,67.51,70.3Z"/><path class="cls-1" d="M71.61,69.3h-.8a2.14,2.14,0,0,0-1.7.8,2.14,2.14,0,0,0-1.7-.8h-.8a2.14,2.14,0,0,0-1.7.8,2.14,2.14,0,0,0-1.7-.8h-.8a2.22,2.22,0,0,0-2.2,2.2v8.4a2.22,2.22,0,0,0,2.2,2.2h.8a2.14,2.14,0,0,0,1.7-.8,2.14,2.14,0,0,0,1.7.8h.8a2.14,2.14,0,0,0,1.7-.8,2.14,2.14,0,0,0,1.7.8h.8a2.22,2.22,0,0,0,2.2-2.2V71.5A2.1,2.1,0,0,0,71.61,69.3Zm-8.3,11.8h-.8a1.16,1.16,0,0,1-1.2-1.2V71.5a1.16,1.16,0,0,1,1.2-1.2h.8a1.16,1.16,0,0,1,1.2,1.2v8.4A1.16,1.16,0,0,1,63.31,81.1Zm4.2,0h-.8a1.16,1.16,0,0,1-1.2-1.2V71.5a1.16,1.16,0,0,1,1.2-1.2h.8a1.16,1.16,0,0,1,1.2,1.2v8.4A1.22,1.22,0,0,1,67.51,81.1Zm5.4-1.2a1.16,1.16,0,0,1-1.2,1.2h-.8a1.16,1.16,0,0,1-1.2-1.2V71.5a1.16,1.16,0,0,1,1.2-1.2h.8a1.16,1.16,0,0,1,1.2,1.2Z"/><path id="owl_left_eye" data-name="owl left eye" d="M21.41,19.73a6.8,6.8,0,1,0,6.8,6.8A6.81,6.81,0,0,0,21.41,19.73Zm1.4,8.5a2.58,2.58,0,0,1-2.6-2.6,2.6,2.6,0,1,1,2.6,2.6Z"/></svg>