<?xml version="1.0" encoding="UTF-8" standalone="no"?>
<svg
   xmlns:dc="http://purl.org/dc/elements/1.1/"
   xmlns:cc="http://creativecommons.org/ns#"
   xmlns:rdf="http://www.w3.org/1999/02/22-rdf-syntax-ns#"
   xmlns:svg="http://www.w3.org/2000/svg"
   xmlns="http://www.w3.org/2000/svg"
   xmlns:sodipodi="http://sodipodi.sourceforge.net/DTD/sodipodi-0.dtd"
   xmlns:inkscape="http://www.inkscape.org/namespaces/inkscape"
   version="1.1"
   id="Lager_1"
   x="0px"
   y="0px"
   width="709"
   height="132"
   viewBox="0 0 708.99999 131.99999"
   enable-background="new 0 0 841.89 595.275"
   xml:space="preserve">
<path
   style="fill:#33346e"
   inkscape:connector-curvature="0"
   d="m 216.82205,78.164964 c -4.06283,-1.754175 -8.58268,-2.775763 -13.1059,-2.782484 -4.43249,-0.01008 -10.1554,1.922199 -10.16548,8.935538 -0.0168,11.170262 28.23818,6.502544 28.2113,28.103762 -0.0202,14.12413 -11.19715,19.46395 -24.21568,19.44378 -7.01334,-0.0101 -10.15203,-0.93421 -16.52016,-2.51364 l 1.21314,-11.62729 c 4.42912,2.40275 9.50346,3.97882 14.58452,3.98554 4.89287,0.003 11.44918,-2.46996 11.45926,-8.29033 0.0168,-12.27922 -28.24154,-7.23513 -28.21466,-28.567504 0.0235,-14.399692 11.20051,-19.648774 22.5556,-19.631972 5.53808,0.01344 10.70988,0.752749 15.4112,2.332179 l -1.21314,10.612421 z"
   id="path3" /><path
   style="fill:#33346e"
   inkscape:connector-curvature="0"
   d="m 231.20494,61.234825 12.36996,0.02016 -0.0571,40.708952 h 0.18483 l 14.79623,-18.993478 14.58787,0.02352 -17.75345,21.204684 19.90417,26.3395 -15.69684,-0.0235 -15.8447,-23.09664 h -0.18483 l -0.0336,23.07647 -12.37331,-0.0168 0.10081,-69.242855 z"
   id="path5" /><path
   style="fill:#33346e"
   inkscape:connector-curvature="0"
   d="m 289.57326,116.5619 c 0.0101,-7.29562 8.22647,-8.20295 13.76792,-8.19623 l 5.35662,0.007 c -0.003,3.69654 -0.56457,7.10743 -2.59766,9.77902 -1.94236,2.58086 -4.89623,4.24094 -8.68686,4.23758 -4.42913,-0.007 -7.84338,-1.76426 -7.84002,-5.82709 z m -6.24715,-20.687163 c 4.15693,-3.138696 9.42617,-5.154989 14.68533,-5.151629 7.29226,0.01344 10.70988,2.604379 10.69308,10.266292 l -6.82515,-0.0101 c -5.1718,-0.0101 -11.26436,0.44694 -15.97912,2.74552 -4.70805,2.30529 -8.13239,6.44877 -8.14247,13.55621 -0.0101,9.04979 8.19287,14.13757 16.59409,14.15101 5.63554,0.003 11.82556,-2.93371 14.69206,-8.19623 h 0.18818 c 0.0907,1.47525 0.084,4.62067 0.5444,7.11079 l 10.89135,0.0168 c -0.27556,-3.69654 -0.45367,-7.0167 -0.53768,-10.61579 -0.0907,-3.50835 -0.18147,-7.11079 -0.17139,-11.91293 l 0.0101,-6.09256 c 0.0168,-14.0334 -5.97494,-20.041952 -20.46873,-20.065476 -5.25916,0 -11.72138,1.371079 -16.53024,3.57892 l 0.35621,10.619143 z"
   id="path7" /><path
   style="fill:#33346e"
   inkscape:connector-curvature="0"
   d="m 334.16021,92.003454 -9.13716,-0.0168 0.0101,-9.046434 9.14053,0.0168 0.0134,-9.510181 12.37668,-3.955295 -0.0168,13.482279 10.98544,0.01344 -0.0134,9.049794 -10.98544,-0.01344 -0.0336,22.152333 c -0.007,4.0662 1.09552,7.84674 5.80692,7.86019 2.21456,0 4.33839,-0.45703 5.6389,-1.29043 l 0.34949,9.78574 c -2.58758,0.73595 -5.44735,1.10224 -9.14389,1.09552 -9.69501,-0.0168 -15.04154,-6.022 -15.02474,-15.43808 l 0.0336,-24.185436 z"
   id="path9" /><path
   style="fill:#33346e"
   inkscape:connector-curvature="0"
   d="m 370.73577,92.04378 -9.14053,-0.01344 0.0101,-9.043073 9.14389,0.0067 0.0101,-9.503461 12.37668,-3.955294 -0.0168,13.478918 10.98879,0.0168 -0.0134,9.043073 -10.98544,-0.01344 -0.0302,22.152337 c -0.0134,4.06619 1.09216,7.85346 5.80356,7.86354 2.21456,0 4.34175,-0.46038 5.63554,-1.29043 l 0.35285,9.78575 c -2.58757,0.73594 -5.44735,1.09888 -9.14052,1.09215 -9.69501,-0.007 -15.04155,-6.01527 -15.02811,-15.43472 l 0.0336,-24.18543 z"
   id="path11" /><path
   style="fill:#33346e"
   inkscape:connector-curvature="0"
   d="m 411.31702,102.16893 c 0.56456,-6.374845 4.07627,-11.166901 10.99888,-11.153459 6.92933,0.0067 9.68829,5.181872 10.0445,11.180339 l -21.04338,-0.0269 z m 29.3337,15.73717 c -4.61731,2.57413 -9.79246,4.78197 -15.78757,4.77525 -7.66863,-0.0134 -13.01517,-4.36191 -13.55621,-12.01711 l 32.86557,0.047 c 0.0202,-16.620973 -4.95336,-28.71873 -22.57912,-28.745614 -14.7727,-0.02016 -22.0784,11.324845 -22.09521,25.079324 -0.0269,15.60275 9.09685,24.66262 24.79369,24.68278 6.64704,0.007 11.81547,-1.27026 16.34877,-3.76038 l 0.0101,-10.0613 z"
   id="path13" /><path
   style="fill:#33346e"
   inkscape:connector-curvature="0"
   d="m 445.99726,82.983904 13.29073,0.02688 11.76843,34.633192 h 0.18819 l 11.49959,-34.606308 12.36659,0.02016 -17.60559,47.520665 -13.93595,-0.0202 -17.57199,-47.574426 z"
   id="path15" /><path
   style="fill:#33346e"
   inkscape:connector-curvature="0"
   d="m 508.667,102.19245 c 0.5612,-6.371481 4.08299,-11.163537 11.00224,-11.156816 6.92597,0.01008 9.68829,5.181872 10.04786,11.187066 l -21.0501,-0.0303 z m 29.3337,15.73381 c -4.62067,2.57749 -9.7891,4.78533 -15.79093,4.77189 -7.66528,-0.007 -13.01517,-4.35519 -13.55621,-12.0171 l 32.86221,0.0504 c 0.0269,-16.62097 -4.94328,-28.715366 -22.57576,-28.748971 -14.76934,-0.0168 -22.0784,11.334926 -22.09185,25.086041 -0.0269,15.59939 9.09685,24.6559 24.79033,24.68279 6.6504,0.007 11.82555,-1.27699 16.34877,-3.76375 l 0.0134,-10.0613 z"
   id="path17" /><path
   style="fill:#33346e"
   inkscape:connector-curvature="0"
   d="m 549.57086,83.135126 10.98208,0.02016 -0.0134,10.797248 h 0.18818 c 0.55448,-4.425763 5.64226,-11.896128 13.03534,-11.886046 1.19633,0 2.48676,0 3.78055,0.373014 l -0.0135,12.46405 c -1.11232,-0.648574 -3.32688,-1.024948 -5.54144,-1.024948 -10.0613,-0.01344 -10.07474,12.537983 -10.08819,19.373213 l -0.0269,17.44093 -12.3666,-0.0134 0.0639,-47.544184 z"
   id="path19" /><path
   style="fill:#33346e"
   inkscape:connector-curvature="0"
   d="m 584.24438,61.043277 12.37332,0.02016 -0.0538,40.70895 h 0.18819 l 14.78614,-18.993476 14.59796,0.0168 -17.76354,21.211403 19.90417,26.3395 -15.69011,-0.0168 -15.84807,-23.10335 h -0.18146 l -0.0403,23.07647 -12.36659,-0.0168 0.0941,-69.242853 z"
   id="path21" /><path
   style="fill:#33346e"
   inkscape:connector-curvature="0"
   d="m 640.82156,102.37392 c 0.56456,-6.371485 4.07963,-11.166901 11.00559,-11.15346 6.92261,0.01008 9.68157,5.181873 10.04114,11.18034 l -21.04673,-0.0269 z m 29.33706,15.73045 c -4.62067,2.57749 -9.79583,4.78533 -15.7943,4.78533 -7.66527,-0.0202 -13.00845,-4.36527 -13.55621,-12.02047 l 32.8723,0.047 c 0.0269,-16.617612 -4.95,-28.725451 -22.58248,-28.748974 -14.77271,-0.02016 -22.07841,11.328205 -22.09857,25.079324 -0.0202,15.6061 9.10356,24.66262 24.79704,24.68614 6.65041,0.003 11.8222,-1.27698 16.34542,-3.76038 l 0.0168,-10.06802 z"
   id="path23" /><path
   style="fill:#33346e"
   inkscape:connector-curvature="0"
   d="m 684.83387,92.373108 -9.13717,-0.01008 0.0134,-9.049794 9.13717,0.01344 0.0134,-9.510181 12.37332,-3.948574 -0.0134,13.478918 10.98207,0.01008 -0.0134,9.046434 -10.98207,-0.01344 -0.0336,22.16242 c -0.007,4.05611 1.09888,7.84002 5.80692,7.84674 2.21457,0.007 4.34512,-0.45031 5.62882,-1.28035 l 0.35957,9.78574 c -2.58421,0.73931 -5.44735,1.09888 -9.14388,1.09552 -9.69501,-0.0168 -15.03819,-6.02199 -15.02475,-15.43808 l 0.0336,-24.188792 z"
   id="path25" /><path
   style="fill:#e4a025"
   inkscape:connector-curvature="0"
   d="m 84.976662,71.104579 c 15.918628,4.788695 29.357228,17.373723 32.791638,34.485331 1.54583,8.04837 0.35622,16.80916 -2.69175,24.74327 l -13.87545,-0.0403 c 3.25631,-5.70275 5.7834,-11.79868 6.42525,-18.40204 1.11232,-11.65417 -3.1555,-25.378403 -13.02189,-32.939502 -3.09837,-2.459877 -6.371485,-4.664357 -10.11843,-6.277391 l 0.490632,-1.569348 z"
   id="path27" /><path
   style="fill:#33346e"
   inkscape:connector-curvature="0"
   d="m 127.73215,130.29286 c 5.239,-15.06507 2.99084,-32.186759 -8.35081,-44.499588 -7.40988,-8.381057 -17.95173,-13.690628 -28.661604,-16.725149 l 0.325967,-1.72057 c 23.315067,5.390223 46.646937,19.840322 50.508137,45.467407 0.89389,5.73635 0.75947,11.80539 -0.77963,17.48798 l -13.04206,-0.0101 z"
   id="path29" /><path
   style="fill:#33346e"
   inkscape:connector-curvature="0"
   d="m 79.697335,74.612928 c 4.059469,2.164155 7.685436,5.134826 10.598979,8.999387 8.659978,12.208654 7.137677,25.069245 4.466089,32.915985 -2.708553,8.97586 -7.732483,13.76792 -7.732483,13.76792 l -17.726575,0.0571 c 11.748267,-7.61822 18.859059,-19.66893 19.665577,-33.739296 0.131059,-7.376271 -3.3,-16.459671 -9.930243,-20.58299 l 0.658656,-1.418126 z"
   id="path31" /><path
   style="fill:#e4a025"
   inkscape:connector-curvature="0"
   d="M 57.040924,77.838997 C 53.246933,61.664968 57.450904,43.730043 70.570249,32.223731 76.77371,26.867113 84.956499,23.526788 93.354358,22.209477 l 6.889002,12.043989 c -6.569755,0.02688 -13.105904,0.877088 -19.154783,3.612525 -10.656108,4.849184 -20.414965,15.394396 -22.048162,27.717306 -0.591446,3.911608 -0.867006,7.846739 -0.393178,11.899488 l -1.606313,0.356212 z"
   id="path33" /><path
   style="fill:#33346e"
   inkscape:connector-curvature="0"
   d="m 86.89214,11.321495 c -15.669956,2.980753 -29.269851,13.401627 -34.28706,29.374027 -3.565478,10.6057 -2.906822,22.394293 -0.188188,33.18482 l -1.65672,0.578004 C 43.800601,51.566701 44.68777,24.128316 64.971676,8.0013332 69.498253,4.3652851 74.743975,1.4954282 80.440003,1.10205e-5 L 86.89214,11.321495 z"
   id="path35" /><path
   style="fill:#33346e"
   inkscape:connector-curvature="0"
   d="m 62.716788,80.671888 c -0.151221,-4.597147 0.61833,-9.224539 2.513646,-13.683907 6.253868,-13.593175 18.160077,-18.687675 26.295819,-20.283906 9.130447,-2.140631 15.861507,-0.211711 15.861507,-0.211711 l 8.81792,15.377593 C 103.74835,55.48503 89.751915,55.337169 77.156806,61.661607 70.704669,65.227085 64.541534,72.731055 64.276055,80.524027 l -1.559267,0.147861 z"
   id="path37" /><path
   style="fill:#33346e"
   inkscape:connector-curvature="0"
   d="m 6.374845,106.57789 c 10.629224,11.88605 26.5781,18.15672 42.849584,14.22495 10.924947,-2.41955 20.680444,-9.05316 28.523823,-16.95367 l 1.347555,1.12241 C 63.06964,122.73848 39.10936,136.12666 14.826473,127.07015 9.3791214,125.06394 4.2174116,122.04958 -9.2309995e-7,117.94642 L 6.374845,106.57789 z"
   id="path39" /><path
   style="fill:#33346e"
   inkscape:connector-curvature="0"
   d="m 78.255685,91.522904 c -3.85784,2.503564 -8.219753,4.234215 -13.01853,4.899592 C 50.366995,98.075856 39.858748,90.504677 34.29378,84.358344 27.757631,77.637368 25.932886,70.876066 25.932886,70.876066 l 8.629733,-15.478409 c 0.954379,13.966189 8.045009,26.033702 19.957939,33.557835 6.381567,3.693176 15.992563,5.09786 22.807633,1.307229 l 0.927494,1.260183 z"
   id="path41" /><path
   style="fill:#e4a025"
   inkscape:connector-curvature="0"
   d="M 78.568211,98.532883 C 66.571268,110.03583 48.995916,115.54367 32.415267,110.1064 24.645819,107.48858 17.605596,102.14541 12.19521,95.585735 l 6.865478,-12.060792 c 3.360488,5.64898 7.419957,10.844295 12.857227,14.651728 9.594194,6.700809 23.644394,9.738699 35.076775,4.865989 3.669653,-1.47862 7.201526,-3.242873 10.444397,-5.709472 l 1.129124,1.199695 z"
   id="path43" />
</svg>