<?xml version="1.0" encoding="utf-8"?>
<!-- Generator: Adobe Illustrator 20.1.0, SVG Export Plug-In . SVG Version: 6.00 Build 0)  -->
<svg version="1.1" id="Layer_1" xmlns="http://www.w3.org/2000/svg" xmlns:xlink="http://www.w3.org/1999/xlink" x="0px" y="0px"
	 viewBox="0 0 539.4 163.3" style="enable-background:new 0 0 539.4 163.3;" xml:space="preserve">
<style type="text/css">
	.st0{fill:#FF7800;}
	.st1{fill:#353535;}
</style>
<g>
	<g>
		<g>
			<path d="M0,56.5h62.1V69H39.2v37.8H22.9V69H0V56.5z"/>
			<path d="M69.3,56.5h49.2c12.6,0,15.9,5.9,15.9,14.9v3.2c0,6.7-1.6,10.7-9.1,12.4v0.1c4.8,0.8,8.9,2.9,8.9,11.1v8.5h-16.3v-6
				c0-5.3-1.6-7-6.7-7H85.6v13.1H69.3V56.5z M85.6,81.2h27c4.4,0,6-1.7,6-5.3v-1.7c0-4.5-2.4-5.3-7.5-5.3H85.6V81.2z"/>
			<path d="M146.3,56.5h16.3v50.3h-16.3V56.5z"/>
			<path d="M174.5,56.5H230v12.1h-39.2V78h37.4v11.7h-37.4v17.2h-16.3V56.5z"/>
			<path d="M238.7,74.1c0-14.7,8.7-18.2,23.4-18.2h26.1c14.7,0,23.4,3.5,23.4,18.2v15c0,14.7-8.7,18.2-23.4,18.2h-26.1
				c-14.7,0-23.4-3.5-23.4-18.2V74.1z M255.5,84.4c0,7.3,1.6,10.1,9.3,10.1h20.9c7.7,0,9.3-2.8,9.3-10.1v-5.4
				c0-6.3-1.6-10.1-10.2-10.1h-19.1c-8.6,0-10.2,3.8-10.2,10.1V84.4z"/>
			<path d="M321.6,56.5h49.2c12.6,0,15.9,5.9,15.9,14.9v3.2c0,6.7-1.6,10.7-9.1,12.4v0.1c4.8,0.8,8.9,2.9,8.9,11.1v8.5h-16.3v-6
				c0-5.3-1.6-7-6.7-7h-25.6v13.1h-16.3V56.5z M337.9,81.2h27c4.4,0,6-1.7,6-5.3v-1.7c0-4.5-2.3-5.3-7.5-5.3h-25.5V81.2z"/>
			<path d="M397.7,56.5H414V75h7.6l20.6-18.5h22.2l-28.8,24.6l32.2,25.7h-23.1l-23.5-19.3H414v19.3h-16.3V56.5z"/>
		</g>
		<g>
			<path class="st0" d="M478.8,92.6h15.4v14.2h-15.4V92.6z"/>
		</g>
	</g>
</g>
<g>
	<path class="st1" d="M474.9,30.1l-0.6,0.3l-0.2,1.2l-1.5,1l-0.2,0.6l-0.5,0.3l0.1,0.5l-1.3,0.6l-1,0.8l-1.2,0.2
		c-0.5,0.3-1,0.3-1.4,0.2l-0.7,0.7l-0.3-0.6l-0.7,0.5c0.1-0.2,0-0.4-0.2-0.7l-0.3-0.3l-0.5,0.3l-0.1,0l-0.5,0.3l-0.6-0.4l-1.1,0
		l-0.5-0.7c-0.1,0-0.2-0.1-0.4-0.1c-0.5-0.2-1.1-0.5-1.8-1.1L459,33l-0.2-0.3l-0.7-0.5l0-1.1c-0.5-0.2-1-0.5-1.5-0.9l-0.3-2.5
		l0.3-0.3l-0.1-0.5l0.3-0.9l-0.1-0.6l0.5-0.5c0-0.4,0-0.7,0.1-1c0-0.1,0.1-0.1,0.1-0.2c0-0.1,0.1-0.2,0.1-0.2l0.5-1.5l0.3-0.4
		l0.9-2.8l0.4-0.6l-0.1-0.3l0.9-1.2l-0.1-0.5l0.3-1l0.3-0.2l0.2-0.7l0-0.5l0.9-1.4l0.3-2l0.2-0.1l0.2-0.6c0.1-0.2,0.1-0.4,0.2-0.8
		c0.1-0.4,0.3-0.8,0.3-1l0.1-0.3l0.1-1.5c0.1-0.2,0.3-0.3,0.5-0.4c0-0.1-0.1-0.3-0.1-0.4c0.2-0.1,0.4-0.3,0.4-0.5
		c0.1-0.3,0-0.6-0.2-1c0.1-0.3,0.2-0.5,0.4-0.7l0-0.5l0.4-0.4l-0.2-1.9l0.8,0.1l0-0.1l1.9-0.3l0.5,1.3l-0.1,0.5l0.5,0.8l-0.3,0.7
		c-0.1,0.3-0.2,0.6-0.4,1c0.2,0.3,0.3,0.6,0.2,0.8c0,0.1-0.1,0.2-0.3,0.3l0.1,0.3l-0.4,0.7l0.1,1l-0.3,0.3l0.6,0.5l-0.5,0.5
		l-0.7,1.2c-0.1,0.2-0.2,0.4-0.4,0.8c-0.1,0.2-0.2,0.6-0.4,1.3l-0.1,0.4l-0.1,0.4l-0.4,0.7c-0.1,0.3-0.2,0.6-0.4,0.8l-0.1,0.1
		c0.1,0.2,0.2,0.5,0.3,0.8l-0.8,0.8l0,0.6l-0.2,0.3c-0.1,0.3-0.2,0.5-0.4,0.9l0,0.2l-0.2,0.5l-0.3,0.7l-0.6,1.5l0.6,0.3l0.6-1.4
		l0.7-0.9l0.2,0.2l0.5-0.6c0.3-0.5,0.7-1,1.3-1.4c0.1-0.1,0.2-0.2,0.4-0.3l0.2-0.1l0,0.1l0.4-0.5l0.8-0.4l0.4-0.2l0.1-0.2l0.4-0.3
		c0.1-0.4,0.4-0.7,0.7-0.8l0.2-0.3l0.7,0l0.3-0.1l0.2-0.3l0.2-0.7l0.7,0.1l0.4,0l-0.2-0.4l0.8,0.1l1-0.4l1.5,0.5l0.7,0.8l0.3,0.1
		l0.4,1.4l-0.1,0.5l0.4,0.2l-0.2,1l0.4,0.5l-0.2,0.7l0.2,0.4l0.3,0.3L477,20l0,0.1c-0.1,0.2,0,0.4,0.1,0.7c0.1,0.3,0.1,0.6,0.1,0.8
		c-0.1,0.2-0.2,0.4-0.3,0.5l0.5,0.4c-0.2,0.4-0.4,0.7-0.7,0.9l-0.2,1.1c0,0.4,0,0.6,0,0.8c0,0.1-0.1,0.3-0.3,0.5l-0.7,2l0.1,0.5
		l-0.4,0.7L474.9,30.1z M472.9,25.5l0.2-0.9l0.3-0.8l0.4-2.3l0.1-1.7l-0.2-1.6l-0.5-2l-0.3,0l-0.3,0.2l-0.2-0.1
		c-0.3,0.5-0.8,0.7-1.3,0.6c-0.4,0.3-0.9,0.6-1.5,1.1l-0.7,0.3l-0.4,0.6l-0.6,0.5l-0.9,1c-0.2,0.5-0.6,1.1-1.2,1.6l-0.4,0.3
		l-0.2,0.8l-1.1,0.8l-0.9,1.5l-0.4,0.1c0,0,0,0.1,0,0.2c0,0.1-0.1,0.2-0.1,0.2c-0.2,0.6-0.5,1.1-1,1.6l0,0.9l-0.7,0l-0.2,0.2
		l-0.5,0.2l1,0.6l0.5,0.5l1,0.2l0.8,0.7l-0.2,0.7l0.1,0.3l1.1,0.4l0.8,0.1c0.3-0.2,0.6-0.3,1-0.1l0.1,0l0.4,0l0-0.6l1.3,0.4
		c0.6-0.7,1.3-1.3,2.3-1.7l0.2-0.5l0.9-0.9l0.4-1.1l0.5-1.2l0.2-0.8L472.9,25.5z"/>
	<path class="st1" d="M491.8,38.1c-0.1,0.3-0.3,0.6-0.7,0.7c-0.4,0.3-0.9,0.6-1.6,0.8l-0.6,0.2l-0.6,0.4l-0.5,0.1l-0.8,0.2l-0.5-0.1
		l-0.3,0.1c-0.7,0-1.3,0.1-1.8,0.5c-0.3,0.1-0.5,0.1-0.7,0c-0.1,0-0.2-0.1-0.3-0.2c-0.6,0.1-1.4,0.1-2.2-0.2
		c-0.7-0.2-1.2-0.5-1.4-0.7l-0.7-0.8l-0.1-0.6l0-0.1c0.1-0.4,0.1-0.8-0.2-1.2l0.1-1l-0.3-0.6l0.3-1.8l0.3-1l0.2-0.8l0.2-0.2
		c0-0.2,0-0.4,0.1-0.7c0.6-1.3,0.9-2.1,1.1-2.4l-0.1-1l0.7-0.6l0.5-1.1l0.2-0.8l0.5-0.6l0-1l0.7-0.5l0.2-0.4l0.5-1.7l0.1-0.3l0.7-2
		l0.8-2l0-0.4l0.5-1.4l0.4-1.3l0.2-0.5l1.2-2.8c1.4,0.1,2,0.1,1.9,0.1c0.5,0.2,0.8,0.6,0.9,1.2l0,0.4l0.5,0.9l-0.5,0.9l-0.1,0.2
		c-0.3,0.6-0.5,0.9-0.7,1.1l-0.2,1l-0.1,1l-0.7,0.9c-0.2,0.5-0.4,1-0.7,1.4c-0.1,0.2-0.2,0.4-0.3,0.7l-0.1,0.3l0.2,0.6l-0.3,0.5
		c0,0.3,0,0.5,0,0.6c-0.1,0.2-0.2,0.4-0.5,0.7l0,0.5l-0.8,1.4l-0.3,1l-0.7,0.9l-0.1,1l-0.9,2l0.1,0.3l-0.6,1l-0.5,1.3
		c-0.1,0.2-0.2,0.3-0.2,0.3c-0.2,0.5-0.3,1-0.5,1.3l-0.1,0.7l-0.2,0.7l0.1,0.7l-0.1,0.2c0.1,0.2,0.2,0.5,0.3,0.9l0.4,0.1l0.6,0.4
		l0.4-0.3l0.4,0.1c0.2,0,0.4,0,0.5,0l0.1,0c0.3,0,0.6,0,0.9-0.2l0.3,0c0.3-0.3,0.8-0.4,1.3-0.4c0.2-0.1,0.6-0.2,1.1-0.5
		c0.1-0.4,0.5-0.7,1.1-0.7c0.5,0.2,0.8,0.2,1,0.1c0.6,0.3,0.9,0.6,1,0.9C492.1,36.9,492,37.4,491.8,38.1z"/>
	<path class="st1" d="M512.9,38.4l-0.6,0.8c-0.3,0.8-0.5,1.5-0.8,1.9l-0.4,0.4l-0.2,0.5l-0.3,0.3l-0.4,0.6l-0.7,0.4l-0.7,1.1l-0.4,0
		l-0.4,0.5l-0.7,0.1l-0.6,0.7l-0.7,0.1l-0.2,0.6l-1,0c-0.6,0.4-1.2,0.6-1.9,0.6l-0.2,0c-0.7,0.5-1.4,0.7-2.1,0.4
		c-0.4,0.1-0.8,0.1-1.2-0.1l-0.6,0.2l-0.5,0l-0.8,0.3l-0.6-0.2l-0.7-0.1l-0.7-0.6l-2-0.8l-0.4-1.3l-0.7-1.4l0.5-0.7l-0.2-1.8
		l0.4-0.5l0.2-1.2l0.4-0.7c0.1-0.4,0.2-0.8,0.3-1c0.2-0.6,0.5-1,0.9-1.2c0.1-0.3,0.5-0.8,1.2-1.4l0.2,0.1l0-0.4l0.4-0.6l0.2-0.7
		c0.3-0.2,0.6-0.3,0.6-0.4l0.1-0.7l0.1-0.2c0.4-0.4,0.6-0.8,0.8-1.3l1.4-1.1c0.2-0.1,0.3-0.1,0.4-0.2l0-0.2l0.2,0.1l1-0.6l0.4-1.1
		l1.3,0c0.5-0.1,1-0.5,1.3-1.1l0.6,0.2c0.4-0.1,0.8-0.1,1,0c0.3,0.1,0.5,0.2,0.7,0.5l0.5,0.2l1.4-0.1l0.5,0.8l0.4,0.5l0.4,0.1
		l0.6,0.6l0.4,0.1c0.3,0.5,0.6,1.2,0.9,2l0,0.3l0.3,0.3l0.6,1.6l0.2,2.5l-0.2,0.5L512.9,38.4z M509.4,38.5l0-0.3
		c-0.2-0.3-0.2-0.6-0.1-0.8l0.2-0.2l-0.1-1l0.4-0.9l-0.1-0.3c-0.3-0.5-0.4-0.8-0.4-1c-0.2-0.2-0.3-0.6-0.1-1.1l-0.3-0.1l-0.3-1.1
		l-0.3-0.5l-0.9-0.7l-0.3-0.2c-0.2-0.1-0.3-0.2-0.3-0.3l-1.3,0.7l-1.1,1.1l-1.2,0.2l-0.3,0.5l-0.6,0.1l-0.6,1.2l-0.7,0.1
		c-0.3,0.4-0.5,0.8-0.6,1.2l-1,0.5l0.2,0.2c-0.1,0.4-0.4,0.7-0.8,0.8c-0.2,0.2-0.4,0.5-0.7,0.8l-0.1,0.4l-0.1,0.2l-0.2,0.6l-0.9,1.1
		l0,0.3l-0.4,1.3l-0.4,0.6l-0.2,0.7l0.2,0.8l0.6,0.5l0.2,0.2l0.4,0.1l1.2,0.4l0.3-0.4L499,44c0.2,0.1,0.3,0.1,0.3,0.3l0.5,0l0.3,0.3
		l0.8-0.2l0.1-0.1l0.5,0c0.3-0.3,1-0.5,1.9-0.5l0.2-0.2l1.2-0.4l0.8-0.6l0.9-0.1l0.1-0.2l0.4-0.4l0.2-0.6l0.7-0.3l0.3-0.3l0.3-0.2
		c0-0.4,0-0.7,0.1-0.9c0.1-0.3,0.3-0.6,0.6-0.8L509.4,38.5z"/>
	<path class="st1" d="M537.6,52.3l-1.1,1.6l0,0.6l-0.2,0.1c0.1,0.3,0.1,0.7,0,0.9c-0.1,0.2-0.2,0.4-0.3,0.5l0,0.1
		c-0.1,0.4-0.8,1.9-2,4.5l-0.4,0.9l-0.1,0.2l-0.2,0.2l-0.1,0.2l0,0.3l-0.2,0.1l-0.2,0.2l-0.2-0.1l0,0.3l-0.2,0.3
		c-0.1,0.2-0.2,0.4-0.5,0.6l-0.5,0.7c-0.2,0.3-0.5,0.6-0.8,0.8c-0.4,0.3-0.9,0.8-1.7,1.3l-1,0.4l-1.2,0.5l-0.8,0.1l-0.7,0.2l-0.4,0
		c-0.7,0.1-1.5,0.1-2.3-0.1l-0.3-0.1l-0.5,0.1l0,0.1c-0.6-0.1-1.1-0.1-1.4-0.3l-1.9-0.6l-1.1-0.6l-1.1-0.1l-0.3-0.6l-1.4-0.6
		l-0.7-1.2l-0.6-0.6c-1.1-0.9-1.6-2-1.4-3.3l0.2-0.2l0.1-0.8c0.6-0.5,1-0.7,1.4-0.6c0.3-0.1,0.6-0.1,0.8,0c1.1,0.6,2,1,2.6,1.2
		l-0.3,0.7l0.4,0.6l-0.2,0.6l-0.5,0.4l2,1.4l1.2,0.1l-0.1,0.3l0.4,0l0.1,0c0,0,0.2,0.1,0.6,0.3l0,0.2l0.6-0.1
		c0.4-0.1,1.2,0.1,2.4,0.5c0.2-0.1,0.4-0.1,0.6-0.2c0,0,0.1,0.1,0.2,0.1c0.1,0,0.2,0.1,0.3,0.1c0.2,0.1,0.4-0.1,0.8-0.4
		c0,0.1,0,0.2,0.1,0.2c0.1,0,0.2,0,0.3,0c0.1,0,0.2,0,0.2,0l0.1,0l2-0.8l1.1-0.9l0.2-0.6l0.7-0.5l0.2-0.6l0.5-0.5l0.7-1.2l0.8-1.1
		c0.1-0.2,0.2-0.5,0.3-0.9c0.2-0.7,0.6-1.4,1-2l0-0.9l0.8-2.3l0-0.9l0.4-1.3l-0.1-1.1l0.5-1.5l0-0.3l-0.4,0l-0.5,0.6l-0.9,0.4
		l-1.3,1.1l-1.5,0.5l-1.8,1c-1,0.5-2.1,1-3.3,1.2l-0.7,0.4l-0.9,0.2l-0.8,0.1l-0.8,0.4l-0.9,0.1c-0.3,0.2-0.8,0.2-1.3,0.2
		c-0.9,0.2-1.7,0.2-2.6-0.1l-0.5-0.2c-0.2-0.1-0.4-0.1-0.7-0.2c-0.3-0.1-0.4-0.2-0.6-0.2l-0.8-0.3l-0.8-1.6l-0.5-1.5l-0.1-1.1l0.3-2
		l0.6-1.3l1-1.5l0.1-0.6l0.9-1.3l0.7-0.7c0.3-0.4,0.5-0.8,0.7-1.4l1.7-1.6c0.2-0.2,0.5-0.4,1-0.6l0.7-0.7l0.8-0.4
		c0.3-0.4,0.6-0.7,1.1-0.8c0.3,0,0.6-0.2,0.8-0.5c0.2-0.3,0.9-0.4,2.1-0.4l-0.3,0l0.3,0c0.1-0.1,0.5-0.4,1-0.7l0.5,0.3l0.5-0.1
		c0.7-0.3,1.3-0.3,1.8-0.1l0.3,0.1l1.4-0.1l0.6,0.5L533,34l0.4,0.5c0.3,0.1,0.5,0.4,0.6,0.7l0.4,0.9l0.2,0.2l0,0.2l0.2,0.8l0,0.3
		l-0.4,0.7l-0.1,0.6l-0.9,0.7l-1.4-0.3l-0.4-1.4l-0.6-0.4l-0.2-0.4l-0.5-0.2c-0.2,0-0.6,0.1-1.2,0.1l-0.2,0.4l-1.2-0.4
		c-0.5,0.4-0.9,0.5-1.3,0.4c-0.2,0.1-0.5,0.1-0.7,0.1l-0.7,0.8l-0.3-0.1l-0.2,0.4l-0.7-0.2l-0.9,0.8l-0.6,0.2l-0.4,0.6l-1,0.8
		l-0.4,0.9l-0.8,0.4l-1.2,1.9l-0.5,0.3l-0.1,0.5l-1.2,1.6l0,0.6l-0.2,0.6c0.1,0.4,0.1,0.8,0,1.1l0.3,0.2l0,0.3
		c0.5,0.2,0.9,0.4,1,0.5c0.4-0.1,1.2-0.1,2.6,0c0.3-0.4,0.7-0.6,1.1-0.7s1.3-0.2,2.5-0.5l0.1,0.1c0.1-0.3,0.3-0.5,0.5-0.6
		c0.5,0,0.9-0.1,1-0.1c0.3-0.1,0.5-0.2,0.6-0.5l0.8,0.1l0.6-0.3l1.7-1.2l0.3,0.3c0.1-0.1,0.6-0.4,1.5-0.9l1.6-1l0.3-0.6
		c0.5-0.2,1.3-1.1,2.3-2.6l0.1-1.1l-0.2-0.8l0.5-0.6l-0.2-0.6l0.1-0.7l0-0.5l0.8-0.7c0.6-0.1,1-0.1,1.2,0c0.3,0.1,0.6,0.4,1,0.8
		l0.1,0.7l0.5,0.7l-0.2,1.1c0,0.3,0,0.8-0.1,1.4c0.1,0.3,0,0.7-0.1,1.1l-0.1,0.3l0,0.3l0.3,0.9l-0.4,0.8l0.2,0.5
		c0,0.3,0,0.5-0.1,0.8c-0.1,0.2-0.1,0.4-0.2,0.5l0.5,0.3l-0.8,1l-0.1,1c0.1,0.4,0,0.7,0,0.9c-0.1,0.3-0.3,0.5-0.5,0.9l0.2,0.3
		L537.6,52.3z"/>
</g>
</svg>
