<?xml version="1.0" encoding="utf-8"?>
<!-- Generator: Adobe Illustrator 20.1.0, SVG Export Plug-In . SVG Version: 6.00 Build 0)  -->
<svg version="1.1" id="Layer_1" xmlns="http://www.w3.org/2000/svg" xmlns:xlink="http://www.w3.org/1999/xlink" x="0px" y="0px"
	 viewBox="0 0 343.9 69.1" style="enable-background:new 0 0 343.9 69.1;" xml:space="preserve">
<style type="text/css">
	.st0{fill:#F78E1E;}
</style>
<path d="M0,0.4h43.2v8.7H27.3v26.3H15.9V9.1H0V0.4z"/>
<path d="M48.2,0.4h34.2c8.7,0,11.1,4.1,11.1,10.4V13c0,4.7-1.1,7.4-6.3,8.6v0.1c3.4,0.6,6.2,2,6.2,7.7v5.9H82v-4.2
	c0-3.7-1.1-4.9-4.7-4.9H59.5v9.1H48.2V0.4z M59.5,17.6h18.8c3.1,0,4.2-1.2,4.2-3.7v-1.2c0-3.1-1.6-3.7-5.2-3.7H59.5V17.6z"/>
<path d="M101.8,0.4h11.3v35h-11.3V0.4z"/>
<path d="M121.4,0.4h38.6v8.4h-27.3v6.5h26v8.1h-26v11.9h-11.3V0.4z"/>
<path d="M166.1,12.7c0-10.3,6.1-12.7,16.3-12.7h18.2c10.2,0,16.3,2.4,16.3,12.7v10.4c0,10.3-6.1,12.7-16.3,12.7h-18.2
	c-10.2,0-16.3-2.4-16.3-12.7V12.7z M177.8,19.8c0,5.1,1.1,7,6.5,7h14.5c5.4,0,6.5-1.9,6.5-7V16c0-4.4-1.1-7-7.1-7h-13.3
	c-6,0-7.1,2.7-7.1,7V19.8z"/>
<path d="M223.8,0.4H258c8.7,0,11.1,4.1,11.1,10.4V13c0,4.7-1.1,7.4-6.3,8.6v0.1c3.4,0.6,6.2,2,6.2,7.7v5.9h-11.3v-4.2
	c0-3.7-1.1-4.9-4.6-4.9h-17.8v9.1h-11.3V0.4z M235.1,17.6h18.8c3.1,0,4.2-1.2,4.2-3.7v-1.2c0-3.1-1.6-3.7-5.2-3.7h-17.7V17.6z"/>
<path d="M276.8,0.4h11.3v12.9h5.3l14.3-12.9h15.4l-20,17.1l22.4,17.9h-16L293.1,22h-5v13.4h-11.3V0.4z"/>
<path class="st0" d="M333.2,25.5h10.7v9.9h-10.7V25.5z"/>
<g>
	<path d="M59.6,66.5c0,0.4-0.3,0.8-0.8,1.1c-0.5,0.3-1,0.4-1.6,0.4c-0.4,0-0.7-0.2-1-0.5c-0.3-0.4-0.5-0.7-0.5-1.1
		c0-0.3,0.1-0.6,0.3-0.9c0.1-0.2,0.5-0.7,1.2-1.5c0.6,0.2,1.1,0.5,1.5,1C59.3,65.5,59.6,66,59.6,66.5z"/>
	<path d="M71.9,66.5c0,0.4-0.3,0.8-0.8,1.1c-0.5,0.3-1,0.4-1.6,0.4c-0.4,0-0.7-0.2-1-0.5c-0.3-0.4-0.5-0.7-0.5-1.1
		c0-0.3,0.1-0.6,0.3-0.9c0.1-0.2,0.5-0.7,1.2-1.5c0.6,0.2,1.1,0.5,1.5,1C71.6,65.5,71.9,66,71.9,66.5z"/>
	<path d="M84.2,66.5c0,0.4-0.3,0.8-0.8,1.1c-0.5,0.3-1,0.4-1.6,0.4c-0.4,0-0.7-0.2-1-0.5c-0.3-0.4-0.5-0.7-0.5-1.1
		c0-0.3,0.1-0.6,0.3-0.9c0.1-0.2,0.5-0.7,1.2-1.5c0.6,0.2,1.1,0.5,1.5,1C83.9,65.5,84.2,66,84.2,66.5z"/>
	<path d="M107,55.7c0,0.5-0.1,0.8-0.2,1c-0.1,0.1-0.4,0.3-0.9,0.5c-0.5-0.1-1-0.2-1.6-0.4c-0.5-0.1-1-0.2-1.5-0.2
		c-1.1,0-2,0.4-2.8,1.1c-0.8,0.7-1.2,1.6-1.2,2.6c0,0.8,0.1,1.8,0.4,2.9c0.6,2.6,0.9,4.3,0.9,5c-0.4,0-0.7,0-1,0
		c-0.2,0-0.6,0.1-1.2,0.2c-0.2-0.8-0.4-2.8-0.7-5.9c-0.1-1.4-0.3-2.5-0.5-3.6c-1,0.6-2.1,1.2-3.1,1.8c-1.4,0.8-2.5,1.1-3.3,1.1h-0.2
		l0-0.8c0-0.9,0.7-1.7,2-2.3c3.2-1.4,4.8-2.4,5-2.9c0.1-2.2,0.2-4,0.2-5.5c0.2-2.9,0.7-4.3,1.7-4.3c0.4,0,0.7,0.1,0.9,0.2
		c0.2,0.2,0.4,0.4,0.4,0.7c0,0.6-0.2,1.7-0.7,3.3c-0.5,1.6-0.7,2.9-0.7,3.7c0,0.3,0,0.5,0,0.8c0,0.3,0.1,0.6,0.2,1.1
		c2.2-0.5,4.4-1,6.6-1.5C106.6,54.4,107,54.8,107,55.7z"/>
	<path d="M125,66.4c-0.4,0.6-0.8,1.1-1.2,1.4c-0.6,0.5-1.1,0.8-1.6,0.8l-0.8-0.3c-0.6-0.8-1-2.6-1.3-5.4c-0.3-3.3-0.6-5.3-0.8-5.9
		c-0.8,0.6-1.7,1.9-2.6,3.9c-0.8,1.6-1.6,3.3-2.3,4.9c-0.8,1.6-1.4,2.4-1.8,2.4c-0.3,0-0.5-0.1-0.6-0.4c-0.1-0.3-0.2-0.6-0.2-1
		c0-0.4,0-0.8,0.1-1.2c0.2-1.1,0.2-1.8,0.2-2.1c0-1.5,0-3.7,0.1-6.7c0.1-3,0.1-5.2,0.1-6.7c0-0.8,0.1-1.5,0.3-2.2
		c0.3-1.1,0.7-1.6,1.3-1.6c0.8,0,1.1,0.4,1.1,1.1c0,0.1-0.3,1.8-1,5.2c-0.4,1.7-0.5,3.1-0.5,4.1c0,1.4,0.1,2.8,0.4,4.1
		c0.6-0.3,1.9-2,3.9-5.2c0.8-1.3,1.6-2,2.3-2c0.9,0,1.5,1.1,1.7,3.2c0,2,0.1,4.1,0.2,6.1c0.1,2.1,0.5,3.2,1.3,3.3L125,66.4z"/>
	<path d="M135.5,55.2c0,0.7-0.1,1.5-0.3,2.4c-0.1,0.3-0.5,1.7-1.3,4.2c-0.2,0.5-0.3,1.3-0.3,2.4c-0.1,1.1-0.2,2-0.3,2.7
		c-0.2,0.7-0.6,1.3-1.3,1.7c0-0.1-0.2-0.2-0.4-0.4c-0.3-0.3-0.5-0.5-0.5-0.8c0-0.2,0-0.4,0.1-0.7c0.1-0.3,0.1-0.5,0.2-0.6
		c0.1-0.5,0.2-1.1,0.2-1.7c0-0.6,0.1-1.3,0.1-1.9c0-0.5,0.3-1.9,0.8-4.2c0.5-2.3,0.9-3.6,1.1-3.8c0.2-0.3,0.4-0.4,0.6-0.5
		c0.1-0.1,0.3-0.1,0.5-0.1c0.3,0,0.6,0.1,0.7,0.4C135.4,54.5,135.5,54.8,135.5,55.2z M137.4,48.2c0,0.3-0.1,0.7-0.3,1
		c-0.2,0.3-0.5,0.5-0.8,0.5c-0.4,0-0.8-0.2-1.2-0.6c-0.3-0.4-0.5-0.8-0.5-1.3c0-0.3,0.1-0.5,0.3-0.7c0.2-0.2,0.5-0.3,0.8-0.3
		c0.4,0,0.9,0.2,1.2,0.5C137.3,47.4,137.4,47.8,137.4,48.2z"/>
	<path d="M154.2,67.3c0,0.3-0.2,0.6-0.5,0.9c-0.3,0.3-0.6,0.5-0.9,0.5c-0.2,0-0.5-0.1-0.8-0.2c-0.3-0.2-0.5-0.3-0.6-0.3
		c-1.3-0.7-2.1-2.1-2.6-4.1c-0.3-1.3-0.4-3.1-0.4-5.3c0-0.3,0-0.6,0-0.8c0-0.2,0-0.4,0-0.5c-0.8,0.7-1.9,3.1-3.4,7.2
		c-0.7,1.9-1.4,3.2-2.3,3.8c-0.5-0.5-0.8-1.1-0.9-1.8c-0.2-0.7-0.2-1.5-0.2-2.4c0-0.6,0-1.4,0.1-2.5c0.1-1.1,0.1-2,0.1-2.5
		c0-0.3-0.1-0.7-0.2-1.4c-0.1-0.7-0.2-1.1-0.2-1.3c0-0.4,0.1-0.8,0.3-1.1c0.2-0.3,0.5-0.4,1-0.4c0.7,0,1.1,1,1.3,3
		c0.1,0.8,0.1,2.1,0.1,3.9l0.3-0.3c0.4-1.8,0.9-3.3,1.5-4.4c0.9-2,2-3,3.1-3c0.6,0,1.1,0.6,1.4,1.8c0.2,0.9,0.3,2.1,0.3,3.6
		c0,0.4,0,0.8,0,1.2c0,0.4,0,0.8,0,1.3c0,1.2,0.1,2.1,0.2,2.7c0.1,0.6,0.4,1,0.7,1.2c0.6,0.2,1.1,0.3,1.5,0.3
		C153.9,66.4,154.2,66.8,154.2,67.3z"/>
	<path d="M171.5,66.7c-0.4,0.5-0.8,0.8-1.1,1c-0.3,0.2-0.6,0.3-1,0.3c-0.1,0-1.3-0.4-3.5-1.2c-1.4-0.5-2.7-1-4.1-1.5
		c0,0.2,0,0.4,0,0.6c0,0.3,0,0.7,0.1,1.1c0,0.4,0,0.7,0,0.7c0,0.3-0.2,0.6-0.5,0.9c-0.1,0.1-0.5,0.3-1,0.5c-0.1-0.1-0.2-0.3-0.3-0.4
		c-0.1-0.2-0.2-0.4-0.3-0.7c-0.2-0.5-0.3-1.2-0.4-2c-0.1-0.8-0.1-1.6-0.1-2.4c0-0.3,0-0.5,0-0.6c0-1.4,0.1-3.4,0.4-6.2
		c0.2-2.8,0.4-4.8,0.4-6.2c0-0.3-0.1-0.8-0.2-1.5c-0.1-0.7-0.2-1.2-0.2-1.4c0-0.9,0.4-1.5,1.3-1.8c0.6,1.6,1,3.2,1,4.9
		c0,0.8-0.1,1.7-0.2,2.7c-0.4,2.5-0.5,4-0.5,4.5l0.1,1.2c1.6-0.4,3.1-1.5,4.5-3.2c1.2-1.4,2.2-3,2.9-4.8c0.4,0.2,0.7,0.4,0.9,0.7
		c0.2,0.3,0.4,0.6,0.4,1c0,1-0.7,2.2-2,3.4c-0.1,0.1-1.4,1.1-3.8,3c-1.4,1.1-2,1.9-2,2.4c0,1,1.8,2.3,5.5,3.7
		C169.9,66.2,171.1,66.6,171.5,66.7z"/>
	<path d="M204.1,64.5c0,0.9-1,1.8-3,2.6c-1.7,0.7-3.1,1.1-4.1,1.1c-1.3,0-2.4-0.2-3.3-0.7c-1.1-0.6-1.6-1.6-1.6-2.8
		c0-0.6,0.2-1,0.7-1.2c0.4-0.2,1-0.3,1.8-0.3c0.4,0,0.7,0.1,0.9,0.3c0.2,0.2,0.3,0.5,0.5,1l-2.1,0.6v0.3c0,0.6,0.5,1,1.5,1.2
		c0.7,0.2,1.4,0.3,2.1,0.3c0.8,0,1.7-0.3,2.7-0.8c1.2-0.6,1.7-1.3,1.7-2c0-1-0.9-1.8-2.6-2.3c-1.7-0.5-3.4-1-5.1-1.5
		c-1.8-0.8-2.7-1.9-2.7-3.5c0-1.7,1.1-3.1,3.2-4.1c1.8-0.9,3.6-1.3,5.4-1.3c0.7,0,1.3,0.2,1.7,0.7c0.4,0.5,0.7,1.1,0.7,1.8
		c0,0.7-0.2,1.2-0.6,1.6c-0.4,0.4-0.9,0.6-1.5,0.6c0-0.5,0-0.9,0-1.2c0-0.7-0.1-1.1-0.4-1.4c-0.3-0.3-0.7-0.4-1.4-0.4
		c-1,0-2.1,0.3-3.3,1c-1.3,0.8-2,1.6-2,2.6c0,0.8,0.9,1.6,2.8,2.3c3.3,1.2,5.1,1.9,5.2,1.9C203.2,61.8,204.1,63,204.1,64.5z"/>
	<path d="M224.1,60.3c0,2.2-1,4.2-3,5.9c-1.9,1.6-4,2.4-6.3,2.4c-1.7,0-3.1-0.5-4.1-1.6c-1-1-1.5-2.4-1.5-4.2c0-2.4,0.8-4.3,2.3-5.9
		c1.5-1.6,3.5-2.4,5.9-2.4c2.1,0,3.7,0.4,4.7,1.2C223.5,56.8,224.1,58.2,224.1,60.3z M222.5,59.9c0-1.3-0.6-2.3-1.7-2.9
		c-0.9-0.5-2-0.7-3.4-0.7c-1.6,0-3,0.7-4.3,2.1c-1.3,1.4-1.9,2.9-1.9,4.5c0,1.2,0.4,2.2,1.1,2.9c0.7,0.7,1.7,1.1,2.9,1.1
		c1.9,0,3.5-0.7,5-2.1C221.7,63.3,222.5,61.7,222.5,59.9z"/>
	<path d="M246.4,45.4c0,0.6-0.2,1.3-0.5,1.9c-0.3,0.6-0.7,1.1-1.3,1.5c0-0.2-0.1-0.4-0.1-0.7c0-0.3,0-0.5,0-0.6
		c0-1.2-0.1-1.9-0.2-2.3c-0.3-0.7-0.9-1.1-1.9-1.1c-2,0-3.5,1-4.6,3.1c-1,1.7-1.4,3.6-1.4,5.7c0,2.8,0.4,4.5,1.3,5.1
		c0.6,0.4,2.3,0.6,5.1,0.6c0.5,0,1,0.1,1.4,0.4c0.4,0.3,0.6,0.6,0.6,1.1c0,0.5-0.3,0.7-0.9,0.7c-0.3,0-0.8-0.1-1.5-0.3
		c-0.7-0.2-1.2-0.3-1.5-0.3c-0.4,0-0.7,0-1,0.1c-0.3,0.1-0.7,0.2-1.3,0.4c0.4,1.4,0.8,2.5,1,3.5c0.2,0.9,0.4,1.7,0.4,2.2
		c0,0.5-0.1,1-0.3,1.3c-0.2,0.4-0.6,0.6-1.1,0.8c-0.4-1.5-0.7-2.8-1-3.9c-0.2-0.7-0.6-2-1.1-3.8c-0.1,0-1.5,0.4-4.4,1.2
		c-0.6,0.2-1.3,0.4-1.9,0.5c-0.5,0-1-0.1-1.5-0.2c0.3-0.8,1.4-1.5,3.2-2.2c0.3-0.1,1.6-0.5,3.9-1.1v-0.3c0-0.5-0.3-1.7-0.8-3.7
		c-0.3-1-0.4-1.8-0.4-2.4c0-2.3,0.8-4.7,2.4-7c1.8-2.6,3.8-3.8,6-3.8c1,0,1.8,0.4,2.4,1.1C246.1,43.6,246.4,44.5,246.4,45.4z"/>
	<path d="M266.2,55.7c0,0.5-0.1,0.8-0.2,1c-0.1,0.1-0.4,0.3-0.9,0.5c-0.5-0.1-1-0.2-1.6-0.4c-0.5-0.1-1-0.2-1.5-0.2
		c-1.1,0-2,0.4-2.8,1.1c-0.8,0.7-1.2,1.6-1.2,2.6c0,0.8,0.1,1.8,0.4,2.9c0.6,2.6,0.9,4.3,0.9,5c-0.4,0-0.7,0-1,0
		c-0.2,0-0.6,0.1-1.2,0.2c-0.2-0.8-0.4-2.8-0.7-5.9c-0.1-1.4-0.3-2.5-0.5-3.6c-1,0.6-2.1,1.2-3.1,1.8c-1.4,0.8-2.5,1.1-3.3,1.1h-0.2
		l0-0.8c0-0.9,0.7-1.7,2-2.3c3.2-1.4,4.8-2.4,5-2.9c0.1-2.2,0.2-4,0.2-5.5c0.2-2.9,0.7-4.3,1.7-4.3c0.4,0,0.7,0.1,0.9,0.2
		c0.2,0.2,0.4,0.4,0.4,0.7c0,0.6-0.2,1.7-0.7,3.3c-0.5,1.6-0.7,2.9-0.7,3.7c0,0.3,0,0.5,0,0.8c0,0.3,0.1,0.6,0.2,1.1
		c2.2-0.5,4.4-1,6.6-1.5C265.8,54.4,266.2,54.8,266.2,55.7z"/>
	<path d="M287.4,56.8c0,2.5-0.3,4.9-0.9,7.1c-0.9,3.3-2.2,4.9-4,4.9c-0.8,0-1.4-0.6-2-1.7c-0.5-1.4-0.9-2.3-1.1-2.7
		c-0.5,0.2-1.6,1.1-3.3,2.5c-1.3,1.2-2.6,1.7-3.8,1.7c-1,0-1.4-0.5-1.4-1.4c0-0.8,0.2-1.6,0.6-2.4c0.6-1.2,1.2-2.5,1.9-3.7
		c0.3-1.2,0.6-2.3,1-3.5c0.4-1.2,1.1-2,2.3-2.5c0.2,0.5,0.3,1,0.3,1.5c0,1.1-0.5,2.8-1.6,5c-1.1,2.3-1.6,3.7-1.6,4.2v0.6
		c1.7-0.5,3.1-1.6,4.2-3.3c0.5-0.8,1.2-2.3,2.1-4.5c0.6-1.5,1.1-2.2,1.6-2.2c0.3,0,0.5,0.2,0.6,0.5c0.2,0.3,0.2,0.6,0.2,1
		c0,0.4-0.1,1-0.2,1.6c-0.4,1.5-0.5,2.4-0.5,2.8c0,0.8,0.1,1.7,0.3,2.6c0.1,0.2,0.2,0.8,0.5,1.6c1.4-0.5,2.3-1.7,2.9-3.7
		c0.4-1.3,0.6-3,0.6-4.9c0-0.6-0.2-1.2-0.6-1.9c-0.9-1.5-1.4-2.4-1.4-2.6c0-0.3,0.1-0.7,0.3-1c0.2-0.3,0.5-0.6,0.8-0.9
		c0.9,0.4,1.5,1.2,1.9,2.2C287.3,54.5,287.4,55.6,287.4,56.8z"/>
	<path d="M307.9,67.4c-0.1,0.3-0.4,0.6-0.7,0.8c-0.3,0.2-0.7,0.3-1.1,0.3c-0.9,0-1.7-1-2.4-3c-0.2-0.8-0.5-1.6-0.7-2.4
		c-1.9,1.6-3.3,2.8-4.4,3.6c-2,1.6-3.7,2.4-5,2.4c-0.6,0-1-0.2-1.3-0.6c-0.3-0.4-0.4-0.9-0.4-1.6c0-1.7,0.8-3.8,2.3-6.2
		c1.4-2.3,3-3.9,4.5-5c0.8-0.6,1.8-1,2.8-1.3c1.1-0.3,2.1-0.5,3.2-0.5c0.7,0,1.2,0.3,1.5,0.9c0.2,0.4,0.4,1.1,0.4,1.8
		c0,0.7-0.1,1.5-0.4,2.5c-0.6,2.2-1,3.5-1,4.1c0,1.1,0.3,1.8,1,2.3C307.2,66.3,307.7,66.9,307.9,67.4z M304.6,56.3
		c-0.2-0.2-0.3-0.3-0.5-0.5c-0.2-0.2-0.4-0.2-0.7-0.2c-2,0-4,1.2-6.1,3.7c-2.1,2.5-3.1,4.7-3.1,6.7l0.1,1c1.7-0.4,3.2-1.1,4.5-2.3
		c1.2-1,2.2-2.3,3.2-3.9C302.9,59.7,303.7,58.2,304.6,56.3z"/>
	<path d="M326.4,55.4c0,0.3-0.1,0.6-0.4,0.9c-0.3,0.3-0.6,0.5-1,0.5c-0.2,0-0.7-0.5-1.4-1.4c-0.7-1-1.4-1.4-2.1-1.4
		c-1.4,0-2.9,0.8-4.3,2.4c-1.4,1.6-2.1,3.2-2.1,4.6c0,0.4,0.1,1.3,0.2,2.5c0.1,0.7,0.1,1.2,0.1,1.5c0,1-0.1,1.8-0.3,2.1
		c-0.3,0.5-0.9,0.8-1.8,1.1c0-1-0.1-2.7-0.2-5c-0.1-2.3-0.2-3.8-0.2-4.5c0-1.9,0.4-3.6,1.3-5h0.3c0,0,0.4,0.3,0.9,0.9
		c0.2,0.2,0.4,0.4,0.6,0.6l0.6-0.6l0.4,0l-0.4,0.1c1-0.6,1.9-1.1,2.7-1.4c1.2-0.6,2.2-0.8,2.8-0.8c0.9,0,1.8,0.3,2.7,0.9
		C325.8,53.8,326.4,54.6,326.4,55.4z"/>
	<path d="M343.9,63.7l-0.3,0.3c0,1.3-1.6,2.4-4.7,3.3c-2.5,0.8-4.6,1.2-6.3,1.2c-1.4,0-2.4-0.4-3.1-1.2c-0.7-0.8-1-1.9-1-3.3
		c0-2.2,1-4.5,3-6.9c2.1-2.5,4.3-3.8,6.4-3.8c0.4,0,0.7,0.1,0.9,0.4c0.2,0.3,0.3,0.7,0.3,1.1c0,1.6-0.7,3.2-2.2,4.7
		c-0.4,0.4-1.8,1.5-4.2,3.2c-1.5,1.1-2.3,2-2.3,2.7c0,0.6,0.3,1,0.9,1.4c0.6,0.3,1.3,0.5,1.9,0.5c0.8,0,2.3-0.3,4.2-0.9
		c2-0.6,3.2-1.2,3.7-1.7c0.3-0.4,0.5-0.7,0.7-0.9c0.3-0.4,0.5-0.6,0.8-0.7l1.3,0.4V63.7z M337,55.4l-0.6,0.6c-0.3,0-0.5,0.1-0.8,0.3
		c-0.3,0.2-0.5,0.3-0.7,0.4c-0.7,0.3-1.4,0.8-2,1.5c-0.3,0.3-1.1,1.5-2.5,3.5l0.5,0c1.3,0,2.7-0.7,4-2.1
		C336.3,58.1,337,56.7,337,55.4z"/>
</g>
</svg>
