<?xml version="1.0" encoding="utf-8"?>
<!-- Generator: Adobe Illustrator 21.0.2, SVG Export Plug-In . SVG Version: 6.00 Build 0)  -->
<svg version="1.1"
	 id="Layer_1" inkscape:version="0.48.4 r9939" sodipodi:docname="sprint-cycle.svg" xmlns:cc="http://creativecommons.org/ns#" xmlns:dc="http://purl.org/dc/elements/1.1/" xmlns:inkscape="http://www.inkscape.org/namespaces/inkscape" xmlns:rdf="http://www.w3.org/1999/02/22-rdf-syntax-ns#" xmlns:sodipodi="http://sodipodi.sourceforge.net/DTD/sodipodi-0.dtd" xmlns:svg="http://www.w3.org/2000/svg"
	 xmlns="http://www.w3.org/2000/svg" xmlns:xlink="http://www.w3.org/1999/xlink" x="0px" y="0px" viewBox="0 0 805 720.2"
	 style="enable-background:new 0 0 805 720.2;" xml:space="preserve">
<style type="text/css">
	.st0{display:none;}
	.st1{display:inline;}
	.st2{fill:#166E75;}
</style>
<sodipodi:namedview  bordercolor="#666666" borderopacity="1" fit-margin-bottom="0" fit-margin-left="0" fit-margin-right="0" fit-margin-top="0" gridtolerance="10" guidetolerance="10" id="namedview197" inkscape:current-layer="Layer_1" inkscape:cx="297.64" inkscape:cy="266.3865" inkscape:pageopacity="0" inkscape:pageshadow="2" inkscape:window-height="1000" inkscape:window-maximized="0" inkscape:window-width="918" inkscape:window-x="20" inkscape:window-y="39" inkscape:zoom="0.28032133" objecttolerance="10" pagecolor="#ffffff" showgrid="false">
	</sodipodi:namedview>
<g id="g3" transform="translate(-1.77557e-5,-154.569)" class="st0">
	<g id="g5" class="st1">
		<path id="path7" inkscape:connector-curvature="0" d="M448.3,459.3c18.2-12.1,36.5-24.2,54.8-36.3c-9.4-23.1-17.5-47.2-26.9-70.3
			c-17.7,13.5-35.4,27-53.1,40.6C431.9,415,439.5,437.6,448.3,459.3L448.3,459.3z"/>
		<path id="path9" inkscape:connector-curvature="0" d="M393.5,495.6c8.2,20.3,17.6,39.8,30.4,57c19-10.8,37.9-21.6,56.9-32.4
			c-13.6-18.3-23.7-39.2-32.5-60.9C430,471.4,411.8,483.5,393.5,495.6L393.5,495.6z"/>
		<path id="path11" inkscape:connector-curvature="0" d="M537.6,487.8c-19,10.8-37.9,21.6-56.9,32.4c13.6,18.3,30.9,34,54.2,45.5
			c20.1-9.8,40.2-19.6,60.4-29.4C570.5,524,552.2,507.3,537.6,487.8L537.6,487.8z"/>
		<path id="path13" inkscape:connector-curvature="0" d="M423.9,552.6c-19,10.8-37.9,21.6-56.9,32.4c-11.9-15.9-20.6-34.1-28.3-53
			c18.2-12.1,36.5-24.2,54.8-36.3c-8.3-20.3-15.4-41.4-23.6-61.8c-17.7,13.5-35.4,27-53.1,40.6c-7.7-18.9-16.4-37.1-28.3-53
			c17-14.8,34-29.6,51-44.5c-12.8-17.1-28.9-31.8-50.7-42.5c15.8-15.8,31.7-31.6,47.6-47.4c23.3,11.4,40.5,27.2,54.1,45.5
			c17-14.8,34-29.7,51-44.5c-14.5-19.5-32.9-36.2-57.7-48.4l-19.3,0.2c-15.8,15.8-31.7,31.6-47.5,47.4
			c-15.8,15.8-31.7,31.6-47.5,47.4c-15.8,15.8-31.7,31.6-47.5,47.4c20.3,10,35.3,23.6,47.2,39.6c11.9,15.9,20.6,34.1,28.3,53
			c7.7,18.9,14.3,38.6,22,57.5s16.4,37.1,28.3,53s26.9,29.6,47.2,39.6l19.3-0.2c20.1-9.8,40.2-19.6,60.3-29.4
			C452.8,584.4,436.7,569.7,423.9,552.6L423.9,552.6z"/>
		<path id="path15" inkscape:connector-curvature="0" d="M390.6,332.4c-17,14.8-34,29.6-51,44.5c12.8,17.1,22.1,36.6,30.4,57
			c17.7-13.5,35.4-27,53.1-40.6C414.2,371.5,404.2,350.7,390.6,332.4L390.6,332.4z"/>
	</g>
	<path id="path17" inkscape:connector-curvature="0" class="st1" d="M8.4,555.9c6,6,12.1,9.6,13.7,8l332-332.1c1.6-1.6-2-7.7-8-13.7
		s-12.1-9.6-13.6-8l-332,332C-1.2,543.8,2.4,549.9,8.4,555.9z"/>
</g>
<g id="g19" transform="translate(-1.77557e-5,-154.569)" class="st0">
	<path id="path21" inkscape:connector-curvature="0" class="st1" d="M571.1,362.2h-23.5c-7-39-21.9-70.7-48.5-70.7H53.4
		C14,291.5,0,361.2,0,420.9s14,129.5,53.4,129.5H499c26.6,0,41.6-31.7,48.5-70.7H571c17.9,0,24.2-31.6,24.2-58.7
		C595.3,393.9,588.9,362.2,571.1,362.2L571.1,362.2z M26,357.6c4.2-19.2,10.2-33.9,17.2-41.2h0.1h1.5H509h0.1
		c7,7.3,13,21.9,17.2,41.2H26L26,357.6z M551.3,392.2c-0.5-6.3-1.2-12.5-2-18.7h26.2h0.1c3.2,3.3,5.9,9.9,7.8,18.7H551.3z"/>
</g>
<g id="g23" transform="translate(-1.77557e-5,-154.569)" class="st0">
	<path id="path25" inkscape:connector-curvature="0" class="st1" d="M589,559.5c3.5,0,6.3-2.8,6.3-6.3v-25.1c0-3.5-2.8-6.3-6.3-6.3
		H169.1c-4.2,9.3-13.5,15.7-24.3,15.7s-20.1-6.5-24.3-15.7H99.3l-3.7,3.7c-20.8,20.8-32.3,48.5-32.3,77.9s11.5,57.1,32.3,78l3.7,3.7
		h20.8c4-9.8,13.5-16.7,24.7-16.7s20.8,6.9,24.7,16.7H589c3.4,0,6.3-2.8,6.3-6.3v-25.1c0-3.4-2.8-6.3-6.3-6.3h-25.8
		c-7.9-13.1-12.2-28.2-12.2-44c0-15.7,4.3-30.8,12.2-43.9L589,559.5L589,559.5L589,559.5z M140.1,647.4h-24.3
		c-9.6-12.6-14.8-27.9-14.8-44s5.2-31.4,14.8-43.9h24.3H535c-2.9,6.7-5.2,13.8-6.7,21H365.7c-5.2,0-9.4,4.2-9.4,9.4s4.2,9.4,9.4,9.4
		h160.4c0,1.4-0.2,2.7-0.2,4.1c0,15.4,3.2,30.3,9.2,44H140.1L140.1,647.4L140.1,647.4L140.1,647.4z"/>
	<path id="path27" inkscape:connector-curvature="0" class="st1" d="M589,194.5c3.5,0,6.3-2.8,6.3-6.3v-25.1c0-3.5-2.8-6.3-6.3-6.3
		H169.1c-4.2,9.3-13.5,15.7-24.3,15.7s-20.1-6.5-24.3-15.7H99.3l-3.7,3.7c-20.8,20.8-32.3,48.5-32.3,78c0,29.4,11.5,57.1,32.3,78
		l3.7,3.7h20.8c4-9.8,13.5-16.7,24.7-16.7s20.8,6.9,24.7,16.7H589c3.4,0,6.3-2.8,6.3-6.3v-25.1c0-3.5-2.8-6.3-6.3-6.3h-25.8
		c-7.9-13.1-12.2-28.2-12.2-44c0-15.7,4.3-30.8,12.2-44L589,194.5L589,194.5L589,194.5z M140.1,282.4h-24.3
		c-9.6-12.6-14.8-27.9-14.8-44s5.2-31.4,14.8-44h24.3H535c-2.9,6.7-5.2,13.8-6.7,21H365.7c-5.2,0-9.4,4.2-9.4,9.4s4.2,9.4,9.4,9.4
		h160.4c0,1.4-0.2,2.7-0.2,4.1c0,15.4,3.2,30.3,9.2,44L140.1,282.4L140.1,282.4L140.1,282.4z"/>
	<path id="path29" inkscape:connector-curvature="0" class="st1" d="M499.9,464.9c-7.9-13.1-12.2-28.2-12.2-44
		c0-15.7,4.3-30.8,12.2-44h25.8c3.5,0,6.3-2.8,6.3-6.3v-25.1c0-3.5-2.8-6.3-6.3-6.3H106.2c-3.9,9.8-13.5,16.7-24.7,16.7
		s-20.8-6.9-24.7-16.7H36l-3.7,3.7C11.5,363.8,0,391.5,0,420.9s11.5,57.1,32.3,78l3.7,3.7h21.3c4.2-9.3,13.5-15.7,24.3-15.7
		s20.1,6.5,24.3,15.7h419.9c3.5,0,6.3-2.8,6.3-6.3v-25.1c0-3.5-2.8-6.3-6.3-6.3L499.9,464.9L499.9,464.9L499.9,464.9L499.9,464.9z
		 M471.7,377c-6,13.7-9.2,28.6-9.2,43.9c0,1.4,0.2,2.8,0.2,4.1H302.4c-5.2,0-9.4,4.2-9.4,9.4c0,5.2,4.2,9.4,9.4,9.4H465
		c1.5,7.2,3.8,14.3,6.7,21H76.8H52.5c-9.6-12.6-14.8-27.9-14.8-44s5.2-31.4,14.8-44h24.3L471.7,377L471.7,377L471.7,377z"/>
</g>
<g id="g31" transform="translate(-1.77557e-5,-154.569)" class="st0">
	<path id="path33" inkscape:connector-curvature="0" class="st1" d="M505.4,384c-7.6-11.8-19.3-19.8-33-22.7
		c-3.6-0.8-7.2-1.1-10.8-1.1c-8,0-15.7,1.9-22.6,5.2c1-11.5-1.8-23-8.3-32.9c-7.6-11.8-19.3-19.8-33-22.7c-3.6-0.8-7.2-1.1-10.8-1.1
		c-6.9,0-13.5,1.4-19.6,3.9l26.8-126c2.9-13.6,0.3-27.6-7.3-39.3c-7.6-11.7-19.3-19.8-33-22.7c-13.6-2.9-27.6-0.3-39.4,7.3
		c-11.7,7.6-19.8,19.3-22.7,33l-53.4,251.4l-53.4-251.4c-2.9-13.6-11-25.3-22.7-33c-11.8-7.6-25.7-10.2-39.4-7.3
		c-13.6,2.9-25.3,11-33,22.7c-7.6,11.8-10.2,25.7-7.3,39.3l57.9,272.6l-1.2,21.5c-16.6,7.5-28.8,23.5-30.9,42.1
		c0,0.2-0.1,0.5-0.1,0.7c-0.2,1.6-0.3,3.2-0.3,4.9c0,0.6,0,1.3,0.1,2c0,0.2,0,0.4,0,0.5c0.1,1.5,0.3,3.3,0.6,5.2c0,0.1,0,0.2,0,0.3
		c2.2,14.8,8.7,40.2,12.8,55.5c8.8,33.2,19.2,68.5,22.5,79.7c8.4,26.4,36.6,47,64.2,47H394c27.2,0,56.9-19.6,67.5-44.7l13.2-31.2
		c9.3-22.1,16.9-59.5,16.9-83.4v-36.4l21.2-99.5C515.6,409.7,513,395.7,505.4,384L505.4,384z M393.1,331.6
		c16.2,3.4,26.6,19.4,23.1,35.6l-24.9,117.3c-8.2-5.4-18-8.5-28.5-8.5h-31.1l25.8-121.3c2.9-13.8,15.3-23.8,29.4-23.8
		C389,330.9,391.1,331.1,393.1,331.6L393.1,331.6z M104.3,181.9c-1.7-7.8-0.2-15.8,4.2-22.6c4.4-6.8,11.1-11.4,18.9-13
		c7.8-1.7,15.8-0.2,22.6,4.2s11.4,11.1,13,18.9l59.3,278.9c1.1,5.1,5.6,8.8,10.9,8.8h10.1c5.3,0,9.8-3.7,10.9-8.8l59.3-278.9
		c3.4-16.2,19.4-26.6,35.6-23.1c16.2,3.4,26.6,19.4,23.1,35.6l-33.8,159.2c-1.2,2.9-2.1,5.9-2.8,9L308.9,476h-147l0.9-17.1
		c0.1-1,0-2-0.2-2.9L104.3,181.9z M454.2,634L441,665.2c-7.1,16.9-28.6,31.1-47,31.1H208.4c-17.9,0-37.6-14.4-42.9-31.3
		c-8.5-28.7-20.2-70.1-27.7-100.2c-4-16.5-7.3-31.6-7.3-36.5c0-15.7,14.3-30,30-30h202.4c16.6,0,30,13.5,30,30c0,16.6-13.5,30-30,30
		h-120c-2.2,0-4.4,0.6-6.2,1.9l-30.9,20.6c-5.1,3.4-6.5,10.3-3.1,15.5c3.4,5.1,10.3,6.5,15.5,3.1l28.1-18.7H363
		c17.2,0,32.4-8.4,42-21.2c6.4,5.5,14.2,9.6,23.1,11.5c3.6,0.8,7.2,1.1,10.8,1.1c11.3,0,21.8-3.7,30.5-10
		C468.7,583.4,462,615.4,454.2,634L454.2,634z M491,418.7L468.1,526c-2.9,13.8-15.3,23.8-29.4,23.8c-2.1,0-4.2-0.2-6.2-0.7
		c-7.7-1.6-14-6.1-18.2-12c0.5-2.9,0.8-5.8,0.8-8.8c0-7.5-1.6-14.5-4.4-21l21.5-101.2c2.9-13.8,15.3-23.8,29.4-23.8
		c2.1,0,4.2,0.2,6.2,0.7C484,386.5,494.4,402.5,491,418.7z"/>
</g>
<g id="g35" transform="translate(-1.77557e-5,-154.569)" class="st0">
	<path id="path37" inkscape:connector-curvature="0" class="st1" d="M540.3,361.5h55V309h-55.1c-2.9-12.5-7.8-24.1-14.4-34.7l39-39
		l-37.2-37.1l-39,39c-10.5-6.5-22.2-11.5-34.6-14.3v-55.2h-52.5v55.2c-12.5,2.9-24.1,7.8-34.7,14.4l-39-39l-37.1,37.2l38.9,38.9
		c-6.6,10.5-11.5,22.2-14.4,34.7h-55v52.5h54.9c2.9,12.5,7.8,24.2,14.4,34.8l-38.8,38.8l37.2,37.1l38.8-38.8
		c10.6,6.6,22.3,11.6,34.8,14.5v54.8H454V448c12.5-2.9,24.3-7.9,34.8-14.5l38.8,38.8l37.2-37.1L526,396.4
		C532.5,385.7,537.4,374,540.3,361.5L540.3,361.5z M427.7,387.9c-29,0-52.5-23.5-52.5-52.5s23.5-52.5,52.5-52.5s52.5,23.5,52.5,52.5
		S456.7,387.9,427.7,387.9z"/>
	<path id="path39" inkscape:connector-curvature="0" class="st1" d="M280.2,532.9h55v-52.5h-55.1c-2.9-12.5-7.8-24.1-14.4-34.7
		l39-39l-37.1-37.1l-39,39c-10.5-6.5-22.2-11.5-34.6-14.3v-55.2h-52.5v55.2c-12.5,2.9-24.1,7.8-34.7,14.4l-39-39l-37.1,37.2
		l38.9,38.9C63,456.3,58.1,468,55.2,480.5H0V533h54.9c2.9,12.5,7.8,24.2,14.4,34.8l-38.8,38.8l37.2,37.1l38.8-38.8
		c10.6,6.6,22.3,11.6,34.9,14.5v54.8h52.5v-54.8c12.5-2.9,24.3-7.9,34.8-14.5l38.8,38.8l37.1-37.1l-38.8-38.8
		C272.4,557.1,277.3,545.4,280.2,532.9z M167.6,559.3c-29,0-52.5-23.5-52.5-52.5s23.5-52.5,52.5-52.5s52.5,23.5,52.5,52.5
		S196.6,559.3,167.6,559.3z"/>
</g>
<g id="g41" transform="translate(-1.77557e-5,-154.569)" class="st0">
	<g id="g43" class="st1">
		<polygon id="polygon45" points="86,678.8 114.9,661.4 361.3,415 341.6,395.3 95.2,641.7 77.8,670.6 		"/>
	</g>
	<g id="g47" class="st1">
		<path id="path49" inkscape:connector-curvature="0" d="M580.6,175.9c-18.7-18.7-48.1-19.9-66.8-1.1l-144,144c-1.7,1.7-1.7,4.3,0,6
			c4.9,4.9,4.9,12.8,0,17.7c-4.9,4.9-12.8,4.9-17.7,0c-1.7-1.7-4.3-1.7-6,0l-16.6,16.6c-1.4,1.4-1.5,3.5-0.6,5.1l63.5,63.5
			c1.6,0.9,3.7,0.8,5.1-0.6l16.6-16.6c1.6-1.7,1.6-4.3,0-6c-4.9-4.9-4.9-12.8,0-17.7c4.9-4.9,12.8-4.9,17.7,0c1.6,1.7,4.3,1.7,6,0
			l144-144C600.5,224,599.4,194.7,580.6,175.9L580.6,175.9z"/>
	</g>
	<path id="path51" inkscape:connector-curvature="0" class="st1" d="M516.6,602.1L347.8,445.4l-59.1,59l162,162.1
		c17.9,18.6,46.5,18.6,65.1,0.7C533.7,648.7,534.4,620,516.6,602.1z M500.1,651.5c-9.3,10-24.3,8.6-34.3-0.7
		c-8.6-8.6-8.6-24.3,0-33.6c10-9.3,25.1-9.3,34.3,0C509.4,626.5,509.4,642.9,500.1,651.5z"/>
	<path id="path53" inkscape:connector-curvature="0" class="st1" d="M252.2,467.8l57.7-57.7L198.2,306.5
		c-16.4-17.9-20.8-25-16.4-45.8c5-22.9,1-64.9-37.9-87.3c-44.8-25.7-90.2-2.1-90.2-2.1l-3.6,5.7c0,0,40.1,26.5,45.1,29.3
		c5.7,3.6,22.9,22.9,2.1,53.7c-20,30.8-42.2,20.7-48.7,15.8c-5-2.9-45.1-28.6-45.1-28.6L0,252.8c0,0-2.9,53.7,41.5,82.3
		c20.8,13.6,43,13.6,58.7,7.9c15.7-5,27.2,0.7,46.5,19.3L252.2,467.8z"/>
</g>
<g id="g55" transform="translate(-1.77557e-5,-154.569)" class="st0">
	<g id="g57" class="st1">
		<polygon id="polygon59" points="258.8,414.9 406.7,329.6 406.7,256.4 44.6,465.3 489.3,718.6 550.5,683.3 437.2,618.2 
			171.2,465.5 180.2,460.3 258.6,414.8 		"/>
		<polygon id="polygon61" points="481.9,123.3 38.5,379.1 38.5,454.4 419.2,234.8 419.2,336.8 419.3,506.4 482.1,542.1 		"/>
		<polygon id="polygon63" points="405.8,513 258.8,429.3 196.2,465.5 556.8,672.5 556.6,159.1 494.4,123.4 494.6,563.6 419.3,520.7 
			419.3,520.8 		"/>
	</g>
</g>
<g id="g65" transform="translate(-1.77557e-5,-154.569)" class="st0">
	<path id="path67" inkscape:connector-curvature="0" class="st1" d="M513.2,211.4L425,123.3H82.1v564.5c0,17.5,22.1,30.8,51.3,30.8
		c29.3,0,51.3-13.2,51.3-30.8l0,0V240.5l61.6,61.6v385.8l0,0c0,17.5,22.1,30.8,51.3,30.8c29.3,0,51.3-13.2,51.3-30.8V205.4H164.2
		v457.5c-8.5-3.7-19-5.9-30.8-5.9s-22.3,2.2-30.8,5.9v-519h307.9v544c0,17.5,22.1,30.8,51.3,30.8c29.3,0,51.3-13.2,51.3-30.8l0,0
		L513.2,211.4L513.2,211.4z M328.4,662.9c-8.5-3.7-19-5.9-30.8-5.9s-22.3,2.2-30.8,5.9V308h61.6L328.4,662.9L328.4,662.9z
		 M297.6,698.1c-19.9,0-30.8-7.7-30.8-10.3s10.9-10.3,30.8-10.3s30.8,7.7,30.8,10.3S317.5,698.1,297.6,698.1z M328.4,287.5h-67.6
		l-61.6-61.6h129.2L328.4,287.5L328.4,287.5z M133.4,677.5c19.9,0,30.8,7.7,30.8,10.3s-10.9,10.3-30.8,10.3s-30.8-7.7-30.8-10.3
		C102.6,685.2,113.5,677.5,133.4,677.5z M492.6,219.9v442.9c-8.5-3.7-19-5.9-30.8-5.9s-22.3,2.2-30.8,5.9V158.3L492.6,219.9z
		 M461.9,698.1c-19.9,0-30.8-7.7-30.8-10.3s10.9-10.3,30.8-10.3s30.8,7.7,30.8,10.3S481.7,698.1,461.9,698.1z"/>
</g>
<g id="g69" transform="translate(-1.77557e-5,-154.569)" class="st0">
	<path id="path71" inkscape:connector-curvature="0" class="st1" d="M472.6,277.8V134.5l0,0l-6.5-11.2h-12.9l-6.5,11.2l0,0v11.1
		c-99.2,7.8-198.9,7.8-298.1,0v-11.1l0,0l-6.5-11.2h-12.9l-6.5,11.2l0,0v143.3H86.5v20.1h36.2V387l156.7,156.6l-58.6,58.6H162v20.1
		h38.7L126.1,697l0,0l-3.3,12.5l9.1,9.1l12.5-3.3l0,0l92.9-92.9h120.9l92.9,92.9l0,0l12.5,3.3l9.1-9.1l-3.3-12.5l0,0l-74.6-74.6
		h38.7v-20.1h-58.8l-58.6-58.6L472.6,387v-89.1h36.2v-20.1H472.6L472.6,277.8z M446.7,278.1V298v63.3c-96.9,31.4-201.2,31.4-298.1,0
		V298v-19.9C247.8,285.9,347.5,285.9,446.7,278.1z M338,602.3h-80.6l40.3-40.3L338,602.3z M297.6,525.4L258.2,486h78.9L297.6,525.4z
		 M246.7,474.4l-81.8-81.8c86.7,24.8,178.7,24.8,265.4,0l-81.8,81.8L246.7,474.4L246.7,474.4z"/>
</g>
<g id="g73" transform="translate(-1.77557e-5,-154.569)" class="st0">
	<path id="path75" inkscape:connector-curvature="0" class="st1" d="M581.9,624.1L423.7,465.8c22.2-34.7,35.2-75.7,35.2-119.8
		c0-122.8-99.9-222.8-222.8-222.8c-122.8,0-222.8,99.9-222.8,222.8s99.9,222.8,222.8,222.8c30,0,58.6-6,84.7-16.8l166.6,166.6
		L581.9,624.1L581.9,624.1z M113.6,346.1c0-67.6,55-122.5,122.5-122.5c67.6,0,122.5,55,122.5,122.5c0,67.6-55,122.5-122.5,122.5
		S113.6,413.7,113.6,346.1z"/>
</g>
<g id="g77" transform="translate(-1.77557e-5,-154.569)" class="st0">
	<path id="path79" inkscape:connector-curvature="0" class="st1" d="M576.2,389.2L329.4,142.4c-8.5-8.5-19.8-13.1-31.8-13.1
		s-23.3,4.7-31.8,13.1L19.1,389.2C10.6,397.6,6,408.9,6,421c0,12,4.7,23.3,13.1,31.8l246.8,246.8c8.5,8.5,19.8,13.1,31.8,13.1
		s23.3-4.7,31.8-13.1l246.8-246.8C593.7,435.2,593.7,406.7,576.2,389.2z M224.7,547.3c-3.4,3.3-6.5,6.4-9.5,9.4l-43.1-43
		c3.3-3.3,6.6-6.5,10.1-9.9c30.6-29.9,67.3-65.7,80.2-137.3c-3.1,0.7-6.1,1.6-8.8,2.5l-11.5,4c-24.2,8.4-32.2-2.1-17.6-23.2
		l46.8-68.1l0,0l26.4-38.4l26.4,38.4l46.8,68.1c14.5,21.1,6.6,31.5-17.7,23.2l-11.5-4c-2.8-0.9-5.7-1.8-8.8-2.5
		c12.9,71.6,49.6,107.4,80.2,137.3c3.5,3.4,6.8,6.6,10.1,9.9l-43,43c-3-3-6.2-6.1-9.5-9.4c-22.5-22-51.4-50.1-72.9-93.6
		C276.1,497.2,247.2,525.4,224.7,547.3L224.7,547.3z"/>
</g>
<g id="g81" transform="translate(-1.77557e-5,-154.569)">
	<g id="g83">
		<path id="path85" inkscape:connector-curvature="0" class="st2" d="M642.6,750.3H725v-35.6l80,80l-80,80v-35.6H530.4
			C573.4,817.2,611.5,786.9,642.6,750.3z"/>
		<path id="path87" inkscape:connector-curvature="0" class="st2" d="M331.5,281.4C217.1,297.6,129,396,129,514.8
			c0,81.4,41.5,153.3,104.4,195.6H105.9C64.6,655.9,40,588.2,40,514.8c0-166.2,125.6-303.5,286.8-322.3l-42.2,42.2L331.5,281.4
			L331.5,281.4z"/>
		<path id="path89" inkscape:connector-curvature="0" class="st2" d="M44.5,794.8L0.1,750.3h364.5c129.9,0,235.7-105.7,235.7-235.7
			c0-116.3-84.8-213.1-195.6-232.1v32.2l-80-80l80-80v38.1c160.2,19.7,284.6,156.6,284.6,322.1c0,179-145.6,324.6-324.6,324.6H0
			L44.5,794.8z"/>
	</g>
</g>
<g id="g91" transform="translate(-1.77557e-5,-154.569)" class="st0">
	<g id="g93" class="st1">
		<path id="path95" inkscape:connector-curvature="0" d="M264.5,464.5l55.1,55.1v61.2h61.2l17.9,17.9v61.2h58.7v58.7h137.9v-76.7
			L341.2,387.8c35.6-68.2,24.7-154.2-32.5-211.5c-70.6-70.6-185.1-70.6-255.7,0S-17.6,361.4,53,432
			C110.2,489.2,196.3,500.1,264.5,464.5L264.5,464.5z M107.8,231.1c22.4-22.4,58.6-22.4,81,0s22.4,58.6,0,81s-58.6,22.4-81,0
			C85.5,289.8,85.5,253.5,107.8,231.1z"/>
	</g>
</g>
<g id="g97" transform="translate(-1.77557e-5,-154.569)" class="st0">
	<g id="g99" class="st1">
		<path id="path101" inkscape:connector-curvature="0" d="M297.6,261.8c-69.8,0-126.4,56.6-126.4,126.3c0,17.4,3.5,33.9,9.9,49l0,0
			L238,603h116.5l57.6-161.6c7.5-16.2,11.9-34.2,11.9-53.2C424,318.4,367.4,261.8,297.6,261.8z"/>
		<rect id="rect103" x="284.5" y="123.3" width="26.3" height="103.1"/>
		
			<rect id="rect105" x="176.8" y="152.1" transform="matrix(0.8661 -0.4999 0.4999 0.8661 -76.3843 122.2161)" width="26.3" height="103.1"/>
		
			<rect id="rect107" x="98.1" y="230.9" transform="matrix(0.5002 -0.8659 0.8659 0.5002 -189.0021 237.4798)" width="26.3" height="103.1"/>
		<polygon id="polygon109" points="535.3,268.1 522.2,245.4 432.9,296.9 446,319.7 		"/>
		
			<rect id="rect111" x="353.8" y="190.5" transform="matrix(0.4995 -0.8663 0.8663 0.4995 26.4651 453.0953)" width="103.1" height="26.3"/>
		<rect id="rect113" x="242.4" y="618.7" width="103.1" height="22.8"/>
		<rect id="rect115" x="242.4" y="657.2" width="103.1" height="22.8"/>
		<rect id="rect117" x="259.8" y="695.8" width="68.3" height="22.8"/>
	</g>
</g>
<g id="g119" transform="translate(-1.77557e-5,-154.569)" class="st0">
	<polygon id="polygon121" class="st1" points="222.5,263.4 115.2,263.4 222.5,156.1 	"/>
	<path id="path123" inkscape:connector-curvature="0" class="st1" d="M249.4,129.3v161h-161v422.4h418.5V129.3H249.4z M438.8,629.7
		H156.5v-34.5h282.3V629.7z M438.8,532.6H156.5v-34.5h282.3V532.6L438.8,532.6z M438.8,433H156.5v-34.5h282.3V433L438.8,433z"/>
</g>
<g id="g125" transform="translate(-1.77557e-5,-154.569)" class="st0">
	<g id="g127" class="st1">
		<path id="path129" inkscape:connector-curvature="0" d="M478.7,328.5c-91.3-55-153.5-68.5-179.2-58.4c-10.6,4.2-21.2,17.8-32.2,36
			c-11.4,18.9-19.6,47.5-17.1,59.9c1.5,7.2,21.2,54.2,132.6,116.3c72.5,40.4,130.1,50.7,140.2,47.4c10.2-3.4,24.3-11,43.2-37.5
			c17.5-24.5,23.1-52.3,23.1-62.9S552.5,373,478.7,328.5L478.7,328.5z M564.3,436.1c-10.2,18.2-84.1-9.1-129.6-34.1
			s-142-90.6-119.4-114.8c15.9-17.1,83,4.5,155.7,50C543.9,382.7,574.6,417.9,564.3,436.1L564.3,436.1z"/>
		<path id="path131" inkscape:connector-curvature="0" d="M289.8,442c-15.6,5.9-55.1,12.8-104.3,12.8c-54.8,0-145.8-12.8-145.8-50
			c0-43.2,134.3-60.8,194.1-54.9c0.6-4.3,2-10.5,2-10.5s-9.4-1.1-27.8-1.1c-135,0-179.9,38.4-189.3,52.3
			c-9.4,13.9-12.5,44-12.5,60.8s-3.6,50.7,23.3,80.2c30.4,33.2,98.9,43.2,154.9,43.2s96.6-4.5,154.3-31.3c3.3-7.7,3.4-16,3.4-19.3
			C342.1,492.4,307.7,448.1,289.8,442L289.8,442z"/>
	</g>
</g>
<g id="g133" transform="translate(-1.77557e-5,-154.569)" class="st0">
	<path id="path135" inkscape:connector-curvature="0" class="st1" d="M538.6,335.9h-17l-61-101.7c-3.8-6.4-13.1-11.7-20.6-11.7
		H155.4c-7.5,0-16.8,5.3-20.6,11.7l-61,101.7h-17C25.5,335.9,0,361.4,0,392.6v15.9v141.7h56.7v69.1h85.1v-69.1h311.8v69.1h85.1
		v-69.1h56.7V408.5v-15.9C595.3,361.4,569.8,335.9,538.6,335.9L538.6,335.9z M159.6,254h276.1l57.7,96.1
		c-26.9,8-85.9,20.5-194.2,20.5c-108.9,0-169.4-12.7-197.1-20.9L159.6,254z M99.2,477.6c-23.5,0-42.6-19-42.6-42.5
		s19.1-42.5,42.6-42.5s42.5,19,42.5,42.5S122.7,477.6,99.2,477.6z M396.8,483.9H198.4c-3.4,0-6.3-2.8-6.3-6.3s2.8-6.3,6.3-6.3h198.4
		c3.4,0,6.3,2.8,6.3,6.3C403.1,481.1,400.3,483.9,396.8,483.9z M396.8,455.6H198.4c-3.4,0-6.3-2.8-6.3-6.3s2.8-6.3,6.3-6.3h198.4
		c3.4,0,6.3,2.8,6.3,6.3S400.3,455.6,396.8,455.6z M496.1,477.6c-23.5,0-42.6-19-42.6-42.5s19-42.5,42.6-42.5
		c23.5,0,42.5,19,42.5,42.5S519.6,477.6,496.1,477.6z"/>
</g>
<g id="g137" transform="translate(-1.77557e-5,-154.569)" class="st0">
	<g id="g139" class="st1">
		<g id="g141">
			<path id="path143" inkscape:connector-curvature="0" d="M461.6,539.9V373.1c-9.9,0.9-20.4,1.7-31.7,2.4v175.9
				C441.3,548,451.9,544.1,461.6,539.9z"/>
		</g>
		<g id="g145">
			<path id="path147" inkscape:connector-curvature="0" d="M152.1,374.5v172.1c39.4,14,90.4,22.4,146.2,22.4
				c13.2,0,26.1-0.5,38.8-1.4V378.9c-12.6,0.2-25.6,0.3-38.8,0.3C243.3,379.2,192.6,377.5,152.1,374.5L152.1,374.5z"/>
		</g>
		<g id="g149">
			<g id="g151">
				<path id="path153" inkscape:connector-curvature="0" d="M106.5,353.5c44.3,5.7,115.8,9.2,191.7,9.2c75.1,0,146.1-3.4,190.4-9
					c3.2-27.1,15.8-45.2,32.9-46.1c-23.1-102.1-114.3-178.4-223.4-178.4S97.7,205.5,74.7,307.7C91.3,309.5,103.4,327.2,106.5,353.5z
					 M394,182.6c7.2-7.4,26.7-0.3,43.5,16s24.6,35.5,17.4,42.9s-26.7,0.3-43.5-16C394.5,209.3,386.7,190.1,394,182.6L394,182.6z"/>
			</g>
		</g>
		<g id="g155">
			<g id="g157">
				<path id="path159" inkscape:connector-curvature="0" d="M446.7,563.2c-30.9,10.5-68.3,18-109.4,21c-2.1,0.1-4.1,0.3-6.2,0.4
					c-1.5,0.1-3,0.1-4.4,0.2c-4.2,0.2-8.4,0.4-12.6,0.5c-0.2,0-0.4,0-0.6,0c-5.2,0.1-10.5,0.2-15.8,0.2s-10.6-0.1-15.8-0.2
					c-0.2,0-0.4,0-0.7,0c-4.2-0.1-8.4-0.3-12.6-0.5c-1.5-0.1-3-0.1-4.4-0.2c-2.1-0.1-4.1-0.3-6.2-0.4c-41.1-3-78.5-10.4-109.4-21
					c-23.8-8.3-43.8-18.6-59.1-30.6l-1.8-0.5c14.8,60.1,56.9,110.3,95.7,142.9c14.1,13.7,29.2,24.7,44.9,31c1.1,0.5,2.2,1.2,3.2,1.7
					c9.7,3.3,37.9,5,66.1,4.9c28.2,0.1,56.3-1.6,66-4.9c1-0.5,2.1-1.2,3.2-1.7c15.7-6.3,30.9-17.3,44.9-31
					c38.8-32.5,81-82.8,95.8-142.9l-1.9,0.5C490.5,544.6,470.5,554.9,446.7,563.2L446.7,563.2z M275.8,668.6c0,3-2.5,5.5-5.5,5.5
					s-5.5-2.5-5.5-5.5v-28.8c0-3,2.5-5.5,5.5-5.5s5.5,2.5,5.5,5.5V668.6z M303.2,676.9c0,3.1-2.5,5.5-5.5,5.5s-5.5-2.5-5.5-5.5
					v-39.2c0-3,2.5-5.5,5.5-5.5s5.5,2.5,5.5,5.5V676.9z M330.5,668.6c0,3-2.5,5.5-5.5,5.5s-5.5-2.5-5.5-5.5v-28.8
					c0-3,2.5-5.5,5.5-5.5s5.5,2.5,5.5,5.5V668.6z"/>
			</g>
		</g>
		<g id="g161">
			<g id="g163">
				<path id="path165" inkscape:connector-curvature="0" d="M523,323.9c-10.3,0-18.6,19.7-18.6,44c0,0.1,0,0.1,0,0.2
					c-4.5,0.7-9.4,1.4-14.6,2v154.5c21.4-14.4,33.9-31.3,33.9-49.5c0,0,17.9-91.2,17.9-107.3C541.6,343.7,533.2,323.9,523,323.9
					L523,323.9z M524.3,370.4c-2,0-3.6-4.6-3.6-10.3c0-5.7,1.6-10.3,3.6-10.3s3.6,4.6,3.6,10.3C527.9,365.8,526.3,370.4,524.3,370.4
					z"/>
			</g>
		</g>
		<g id="g167">
			<g id="g169">
				<path id="path171" inkscape:connector-curvature="0" d="M121.2,533.3V371.8c-11.4-1.2-21.6-2.5-30.3-3.9l0,0
					c0-24.3-8.3-44-18.6-44s-18.6,19.7-18.6,44c0,18.7,19.1,107.3,19.1,107.3C72.9,497.2,90.9,517.3,121.2,533.3L121.2,533.3z
					 M70.7,370.4c-2,0-3.6-4.6-3.6-10.3c0-5.7,1.6-10.3,3.6-10.3s3.6,4.6,3.6,10.3C74.3,365.8,72.7,370.4,70.7,370.4z"/>
			</g>
		</g>
	</g>
</g>
<g id="g173" transform="translate(-1.77557e-5,-154.569)" class="st0">
	<g id="g175" class="st1">
		<path id="path177" inkscape:connector-curvature="0" d="M416.7,123.3H178.6c-21.9,0-39.7,17.7-39.7,39.7v515.9
			c0,21.9,17.7,39.7,39.7,39.7h238.1c21.9,0,39.7-17.7,39.7-39.7V163C456.4,141.1,438.6,123.3,416.7,123.3z M257.3,159.3h80.6
			c7.2,0,13,5.9,13,13c0,7.2-5.8,13-13,13h-80.6c-7.2,0-13-5.8-13-13C244.3,165.1,250.1,159.3,257.3,159.3z M297.6,681.3
			c-17.8,0-32.2-14.4-32.2-32.2c0-17.7,14.4-32.2,32.2-32.2c17.8,0,32.2,14.4,32.2,32.2C329.8,666.9,315.4,681.3,297.6,681.3z
			 M414.7,589.6H180.6v-372h234.1V589.6L414.7,589.6L414.7,589.6z"/>
	</g>
</g>
<g id="g179" transform="translate(-1.77557e-5,-154.569)" class="st0">
	<g id="g181" class="st1">
		<path id="path183" inkscape:connector-curvature="0" d="M431,142c-8.4-7-18.9-10.2-28-12.4c-17.8-4.3-86.1-6.3-104.5-6.3h-1.9
			c-18.3,0-86.7,2-104.4,6.3c-9.1,2.2-19.6,5.4-28,12.4c-10.2,8.4-15.3,20.8-15.3,36.9v485.7c0,32.7,26.2,42.1,37.5,44.7
			c12.4,2.8,41.5,9.3,110.1,9.3h2.4c68.5,0,97.6-6.5,110.1-9.3c11.2-2.5,37.5-12,37.5-44.7V178.9C446.4,162.8,441.2,150.4,431,142z
			 M396.1,156.7c7.9,0,14.2,6.4,14.2,14.3c0,7.9-6.4,14.3-14.2,14.3c-7.9,0-14.2-6.4-14.2-14.3C381.9,163.1,388.3,156.7,396.1,156.7
			z M242.5,165.1h105.2c3.5,0,6.2,2.8,6.2,6.2s-2.7,6.2-6.2,6.2H242.5c-3.4,0-6.2-2.8-6.2-6.2C236.4,167.8,239.1,165.1,242.5,165.1
			L242.5,165.1z M321,684.8c-6,1.4-18.3,1.6-23.7,1.6c-0.6,0-1.2,0-1.6,0s-1,0-1.6,0c-5.3,0-17.7-0.2-23.7-1.6
			c-8-1.9-10.5-10.9-10.5-13.9c0-2.1,0-7.8,8.5-7.8h26.3h1.9H323c8.5,0,8.5,5.6,8.5,7.8C331.5,674,329,682.9,321,684.8L321,684.8z
			 M408.6,635.9H185.1V207h223.4L408.6,635.9L408.6,635.9L408.6,635.9z"/>
	</g>
</g>
<g id="g185" transform="translate(-1.77557e-5,-154.569)" class="st0">
	<path id="path187" inkscape:connector-curvature="0" class="st1" d="M404.5,295.2v131.3L273.2,295.2v153.3h-41.9V123.3h-54.9v325.1
		h-41.9V123.3h-55v325.1h-42v270.2h520.2V448.4l0,0L404.5,295.2z M533.3,516h-81.2v-43.1h81.2V516z M322,540.4h81.2v43.1H322V540.4z
		 M273.2,583.5H192v-43.1h81.2V583.5L273.2,583.5z M322,516v-43.1h81.2V516H322z M273.2,472.9V516H192v-43.1H273.2z M143.2,472.9
		V516H62v-43.1H143.2L143.2,472.9z M62,540.4h81.2v43.1H62V540.4L62,540.4z M452.1,583.5v-43.1h81.2v43.1H452.1z"/>
</g>
<g id="g189" transform="translate(-1.77557e-5,-154.569)" class="st0">
	<g id="g191" class="st1">
		<path id="path193" inkscape:connector-curvature="0" d="M77.2,409.9v308.7h441V409.9H77.2z M319.7,580.2v72.2h-44.1v-72.2
			c-13.1-7.7-22-21.7-22-38c0-24.3,19.7-44.1,44.1-44.1c24.3,0,44.1,19.8,44.1,44.1C341.7,558.5,332.8,572.5,319.7,580.2z"/>
		<path id="path195" inkscape:connector-curvature="0" d="M209.4,277.7c0.2-18.5,0-88.2,88.2-88.2s87.9,70,88.2,88.2v66.1H452v-66.2
			c0,0,0-154.3-154.3-154.3S143.3,277.6,143.3,277.6v66.2h66.1L209.4,277.7L209.4,277.7z"/>
	</g>
</g>
</svg>
