<?xml version="1.0" encoding="UTF-8" standalone="no"?><!DOCTYPE svg PUBLIC "-//W3C//DTD SVG 1.1//EN" "http://www.w3.org/Graphics/SVG/1.1/DTD/svg11.dtd"><svg width="100%" height="100%" viewBox="0 0 146 76" version="1.1" xmlns="http://www.w3.org/2000/svg" xmlns:xlink="http://www.w3.org/1999/xlink" xml:space="preserve" style="fill-rule:evenodd;clip-rule:evenodd;stroke-linecap:round;"><g><g><path id="svg_3" d="M121.915,66.222c0,0 -5.87,3.163 -14.874,6.297c-5.438,1.896 -15.097,-1.302 -20.126,-2.634c-5.036,-1.336 -13.738,-4.101 -11.324,-6.515c2.415,-2.414 9.358,-7.563 9.358,-7.563c0,0 -6.611,10.916 36.966,10.415l0,0Z" style="fill:#c2ffbc;fill-rule:nonzero;stroke:#16401e;stroke-width:1px;"/><path id="svg_5" d="M81.731,58.283c0,4.604 13.773,8.338 30.766,8.338c16.991,0 30.762,-3.733 30.762,-8.338c-3.544,-2.568 -3.031,-4.731 -3.031,-4.731l-55.61,0c0.002,0 0.494,2.163 -2.887,4.731l0,0Z" style="fill:#c2ffbc;fill-rule:nonzero;stroke:#16401e;stroke-width:1px;"/><path id="svg_8" d="M136.844,37.072c-0.687,-1.57 -3.353,-6.99 -8.771,-10.806c-9.821,-6.927 -22,-5.605 -29.161,-1.448c-4.839,2.815 -8.173,6.443 -10.814,11.769c-0.645,1.301 -1.847,4.077 -2.67,8.049c-0.713,3.444 -0.781,5.617 -0.896,9.224c0.005,3.015 5.726,5.734 15.584,7.057c13.795,1.848 30.468,0.243 37.235,-3.583c1.937,-1.095 2.851,-2.259 2.847,-3.393c-0.143,-4.662 -0.315,-9.942 -3.354,-16.869l0,0Z" style="fill:#c2ffbc;fill-rule:nonzero;stroke:#16401e;stroke-width:1px;"/><path id="svg_10" d="M136.844,37.072c-0.687,-1.57 -3.353,-6.99 -8.771,-10.806c-9.821,-6.927 -22,-5.605 -29.161,-1.448c-4.839,2.815 -8.173,6.443 -10.814,11.769c-0.645,1.301 -1.847,4.077 -2.67,8.049c-0.713,3.444 -0.781,5.617 -0.896,9.224c0.005,3.015 5.726,5.734 15.584,7.057c13.795,1.848 30.468,0.243 37.235,-3.583c1.937,-1.095 2.851,-2.259 2.847,-3.393c-0.143,-4.662 -0.315,-9.942 -3.354,-16.869l0,0Z" style="fill:#c2ffbc;fill-rule:nonzero;stroke:#16401e;stroke-width:1px;"/><path id="svg_12" d="M122.147,66.084c0,0 -5.873,3.157 -14.875,6.296c-5.436,1.892 -15.094,-1.302 -20.123,-2.638c-5.036,-1.332 -13.739,-4.096 -11.325,-6.516c2.415,-2.413 9.354,-7.559 9.354,-7.559c0,0 -6.607,10.916 36.969,10.417l0,0Z" style="fill:#c2ffbc;fill-rule:nonzero;stroke:#16401e;stroke-width:1px;"/><path id="svg_14" d="M81.963,58.145c0,0.75 0.365,1.477 1.051,2.168c3.521,3.552 15.487,6.166 29.712,6.166c16.991,0 30.765,-3.729 30.765,-8.334c-3.546,-2.569 -3.03,-4.731 -3.03,-4.731l-55.613,0c0.002,0 0.482,2.111 -2.767,4.639c-0.039,0.031 -0.078,0.061 -0.118,0.092l0,0Z" style="fill:#c2ffbc;fill-rule:nonzero;stroke:#16401e;stroke-width:1px;"/><path id="svg_17" d="M137.078,36.931c-0.688,-1.568 -3.354,-6.986 -8.771,-10.806c-9.82,-6.926 -21.999,-5.603 -29.161,-1.446c-4.842,2.815 -8.174,6.442 -10.813,11.764c-0.646,1.301 -1.851,4.077 -2.67,8.051c-0.711,3.442 -0.78,5.616 -0.897,9.219c0.004,3.015 5.73,5.738 15.588,7.058c13.795,1.852 30.467,0.242 37.232,-3.584c1.936,-1.095 2.852,-2.255 2.848,-3.393c-0.148,-4.654 -0.321,-9.935 -3.356,-16.863l0,0Z" style="fill:#c2ffbc;fill-rule:nonzero;stroke:#16401e;stroke-width:1px;"/><path id="svg_19" d="M137.078,36.931c-0.688,-1.568 -3.354,-6.986 -8.771,-10.806c-9.82,-6.926 -21.999,-5.603 -29.161,-1.446c-4.842,2.815 -8.174,6.442 -10.813,11.764c-0.646,1.301 -1.851,4.077 -2.67,8.051c-0.711,3.442 -0.78,5.616 -0.897,9.219c0.004,3.015 5.73,5.738 15.588,7.058c13.795,1.852 30.467,0.242 37.232,-3.584c1.936,-1.095 2.852,-2.255 2.848,-3.393c-0.148,-4.654 -0.321,-9.935 -3.356,-16.863l0,0Z" style="fill:#c2ffbc;fill-rule:nonzero;stroke:#16401e;stroke-width:1px;"/><path id="svg_22" d="M137.078,36.931c-0.688,-1.568 -3.354,-6.986 -8.771,-10.806c-9.82,-6.926 -21.999,-5.603 -29.161,-1.446c-4.842,2.815 -8.174,6.442 -10.813,11.764c-0.646,1.301 -1.851,4.077 -2.67,8.051c-0.711,3.442 -0.78,5.616 -0.897,9.219c0.004,3.015 5.73,5.738 15.588,7.058c13.795,1.852 30.467,0.242 37.232,-3.584c1.936,-1.095 2.852,-2.255 2.848,-3.393c-0.148,-4.654 -0.321,-9.935 -3.356,-16.863l0,0Z" style="fill:#c2ffbc;fill-rule:nonzero;stroke:#16401e;stroke-width:1px;"/><path id="svg_26" d="M127.025,25.086c-20.661,-13.174 -41.629,13.883 -40.973,31.258l-1.922,0.775c0.001,-18.939 20.524,-46.854 42.895,-32.033" style="fill:#c2ffbc;fill-rule:nonzero;stroke:#16401e;stroke-width:1px;"/><path id="svg_28" d="M92.166,59.831c-0.001,-17.141 10.229,-43.849 28.753,-37.785c-19.864,-6.723 -36.784,17.858 -36.784,35.056l-0.372,1.023l-0.677,1.835l8.035,2.71l1.045,-2.839l0,0Z" style="fill:#c2ffbc;fill-rule:nonzero;stroke:#16401e;stroke-width:1px;stroke-linejoin:round;"/><path id="svg_33" d="M92.165,59.831l-1.047,2.839l4.711,-3.296c-0.66,-17.379 10.535,-47.461 31.197,-34.292c-22.372,-14.817 -34.861,15.807 -34.861,34.749Z" style="fill:#c2ffbc;fill-rule:nonzero;stroke:#16401e;stroke-width:1px;stroke-linejoin:round;"/></g><g><path id="svg_31" d="M28.33,49.429c0,0 6.661,0.339 16.138,-0.692c5.726,-0.62 13.08,-7.652 17.051,-11.012c3.976,-3.367 10.651,-9.597 7.434,-10.742c-3.216,-1.145 -11.696,-2.818 -11.696,-2.818c0,0 10.653,7.025 -28.927,25.264l0,0Z" style="fill:#3c66a5;fill-rule:nonzero;stroke:#3a396c;stroke-width:1px;"/><path id="svg_51" d="M61.226,25.021c1.974,4.159 -8.866,13.44 -24.216,20.728c-15.349,7.288 -29.39,9.823 -31.365,5.664c2.1,-3.841 0.709,-5.574 0.709,-5.574l50.234,-23.853c-0.002,0.001 0.481,2.165 4.638,3.035l0,0Z" style="fill:#3c66a5;fill-rule:nonzero;stroke:#3a396c;stroke-width:1px;"/><path id="svg_81" d="M2.341,29.501c-0.051,-1.713 0.031,-7.753 3.288,-13.524c5.902,-10.47 17.47,-14.5 25.722,-13.816c5.579,0.467 10.147,2.314 14.817,5.993c1.141,0.899 3.417,2.891 5.864,6.125c2.122,2.806 3.115,4.739 4.766,7.949c1.288,2.725 -2.714,7.635 -11.05,13.059c-11.67,7.586 -27.419,13.288 -35.174,12.734c-2.218,-0.158 -3.543,-0.818 -4.026,-1.844c-1.871,-4.272 -3.98,-9.116 -4.207,-16.676l0,0Z" style="fill:#3c66a5;fill-rule:nonzero;stroke:#3a396c;stroke-width:1px;"/><path id="svg_101" d="M2.341,29.501c-0.051,-1.713 0.031,-7.753 3.288,-13.524c5.902,-10.47 17.47,-14.5 25.722,-13.816c5.579,0.467 10.147,2.314 14.817,5.993c1.141,0.899 3.417,2.891 5.864,6.125c2.122,2.806 3.115,4.739 4.766,7.949c1.288,2.725 -2.714,7.635 -11.05,13.059c-11.67,7.586 -27.419,13.288 -35.174,12.734c-2.218,-0.158 -3.543,-0.818 -4.026,-1.844c-1.871,-4.272 -3.98,-9.116 -4.207,-16.676l0,0Z" style="fill:#3c66a5;fill-rule:nonzero;stroke:#3a396c;stroke-width:1px;"/><path id="svg_121" d="M28.062,49.403c0,0 6.66,0.334 16.138,-0.692c5.722,-0.622 13.077,-7.65 17.047,-11.015c3.978,-3.363 10.653,-9.593 7.434,-10.743c-3.216,-1.144 -11.691,-2.816 -11.691,-2.816c0,0 10.65,7.027 -28.928,25.266l0,0Z" style="fill:#3c66a5;fill-rule:nonzero;stroke:#3a396c;stroke-width:1px;"/><path id="svg_141" d="M60.957,24.996c0.322,0.677 0.303,1.491 -0.019,2.41c-1.658,4.719 -11.346,12.212 -24.196,18.314c-15.348,7.288 -29.391,9.827 -31.366,5.667c2.101,-3.841 0.708,-5.573 0.708,-5.573l50.237,-23.854c-0.002,0.001 0.471,2.114 4.489,3.004c0.049,0.011 0.098,0.021 0.147,0.032l0,0Z" style="fill:#3c66a5;fill-rule:nonzero;stroke:#3a396c;stroke-width:1px;"/><path id="svg_171" d="M2.07,29.474c-0.051,-1.712 0.033,-7.75 3.288,-13.524c5.9,-10.469 17.469,-14.498 25.722,-13.815c5.582,0.466 10.147,2.314 14.814,5.989c1.142,0.899 3.42,2.89 5.865,6.128c2.119,2.804 3.114,4.738 4.765,7.943c1.289,2.725 -2.715,7.641 -11.055,13.062c-11.667,7.59 -27.417,13.287 -35.169,12.732c-2.219,-0.158 -3.544,-0.813 -4.028,-1.843c-1.863,-4.268 -3.972,-9.113 -4.202,-16.672l0,0Z" style="fill:#3c66a5;fill-rule:nonzero;stroke:#3a396c;stroke-width:1px;"/><path id="svg_191" d="M2.07,29.474c-0.051,-1.712 0.033,-7.75 3.288,-13.524c5.9,-10.469 17.469,-14.498 25.722,-13.815c5.582,0.466 10.147,2.314 14.814,5.989c1.142,0.899 3.42,2.89 5.865,6.128c2.119,2.804 3.114,4.738 4.765,7.943c1.289,2.725 -2.715,7.641 -11.055,13.062c-11.667,7.59 -27.417,13.287 -35.169,12.732c-2.219,-0.158 -3.544,-0.813 -4.028,-1.843c-1.863,-4.268 -3.972,-9.113 -4.202,-16.672l0,0Z" style="fill:#3c66a5;fill-rule:nonzero;stroke:#3a396c;stroke-width:1px;"/><path id="svg_221" d="M2.07,29.474c-0.051,-1.712 0.033,-7.75 3.288,-13.524c5.9,-10.469 17.469,-14.498 25.722,-13.815c5.582,0.466 10.147,2.314 14.814,5.989c1.142,0.899 3.42,2.89 5.865,6.128c2.119,2.804 3.114,4.738 4.765,7.943c1.289,2.725 -2.715,7.641 -11.055,13.062c-11.667,7.59 -27.417,13.287 -35.169,12.732c-2.219,-0.158 -3.544,-0.813 -4.028,-1.843c-1.863,-4.268 -3.972,-9.113 -4.202,-16.672l0,0Z" style="fill:#3c66a5;fill-rule:nonzero;stroke:#3a396c;stroke-width:1px;"/><path id="svg_261" d="M6.071,14.462c13.012,-20.763 43.56,-5.315 50.419,10.661l2.069,-0.124c-8.124,-17.108 -38.637,-33.522 -52.488,-10.537" style="fill:#3c66a5;fill-rule:nonzero;stroke:#3a396c;stroke-width:1px;"/><path id="svg_281" d="M52.463,30.896c-7.352,-15.485 -28.048,-35.223 -42.181,-21.8c15.061,-14.593 40.889,0.354 48.266,15.89l0.774,0.764l1.399,1.367l-6.096,5.895l-2.162,-2.116l0,0Z" style="fill:#3c66a5;fill-rule:nonzero;stroke:#3a396c;stroke-width:1px;stroke-linejoin:round;"/><path id="svg_331" d="M52.464,30.895l2.164,2.116l-5.67,-0.957c-6.859,-15.982 -29.874,-38.355 -42.89,-17.595c13.854,-22.982 38.271,-0.674 46.396,16.436Z" style="fill:#3c66a5;fill-rule:nonzero;stroke:#3a396c;stroke-width:1px;stroke-linejoin:round;"/></g></g></svg>