<svg version="1.1" id="owl" xmlns="http://www.w3.org/2000/svg" xmlns:xlink="http://www.w3.org/1999/xlink" x="0px" y="0px" viewBox="0 0 349.4 182.3" style="enable-background:new 0 0 349.4 182.3;" xml:space="preserve">
<style type="text/css">
	.st0{fill:#AE92D6;}
	.st1{fill:#FFFFFF;}
	.st2{fill:#3C1669;}
	.st3{fill:#5D24AD;}
	.st4{fill:#FF6600;}
</style>
<g>
	<path class="st0" d="M12.4,174.1h2.8v5.6c-1.6,1.7-3.8,2.6-6.6,2.6c-2.4,0-4.5-0.8-6.1-2.4c-1.6-1.6-2.5-3.6-2.5-6.1
		c0-2.4,0.8-4.5,2.5-6.1c1.7-1.6,3.7-2.4,6-2.4s4.3,0.7,5.9,2.1l-1.5,2.1c-0.6-0.5-1.3-0.9-1.9-1.1c-0.6-0.2-1.4-0.3-2.3-0.3
		c-1.7,0-3.1,0.5-4.2,1.6s-1.7,2.5-1.7,4.2c0,1.7,0.5,3.1,1.6,4.2c1.1,1.1,2.4,1.6,4,1.6c1.6,0,2.9-0.3,3.9-1V174.1z"></path>
	<path class="st0" d="M30.2,165.7v2.6h-8.8v4.3h7.9v2.5h-7.9v4.4h9v2.6H18.7v-16.4H30.2z"></path>
	<path class="st0" d="M40,168.2v13.9h-2.8v-13.9h-5v-2.5H45v2.5H40z"></path>
	<path class="st0" d="M59.2,177.5l3.7-11.8h2.5l3.7,11.8l4.1-11.8h3l-5.7,16.4h-2.7l-3.5-11.3H64l-3.5,11.3h-2.7l-5.7-16.4h3
		L59.2,177.5z"></path>
	<path class="st0" d="M78.5,165.7h2.8v16.4h-2.8V165.7z"></path>
	<path class="st0" d="M90.6,167.8c-0.8,0-1.5,0.2-2,0.5c-0.5,0.3-0.8,0.8-0.8,1.5c0,0.7,0.3,1.2,0.8,1.5c0.5,0.4,1.6,0.7,3.3,1.1
		c1.7,0.4,3,1,3.8,1.7c0.9,0.7,1.3,1.8,1.3,3.3c0,1.4-0.5,2.6-1.6,3.5c-1.1,0.9-2.5,1.3-4.3,1.3c-2.6,0-4.8-0.9-6.8-2.7l1.7-2.1
		c1.7,1.4,3.4,2.2,5.2,2.2c0.9,0,1.6-0.2,2.1-0.6c0.5-0.4,0.8-0.9,0.8-1.5c0-0.6-0.2-1.1-0.7-1.5c-0.5-0.4-1.3-0.7-2.5-1
		c-1.2-0.3-2.1-0.6-2.7-0.8s-1.2-0.6-1.7-1c-1-0.7-1.5-1.9-1.5-3.4c0-1.5,0.6-2.7,1.7-3.5c1.1-0.8,2.5-1.2,4.1-1.2
		c1,0,2.1,0.2,3.1,0.5c1,0.3,1.9,0.8,2.7,1.5l-1.5,2.1c-0.5-0.4-1.1-0.8-2-1.1C92.2,168,91.4,167.8,90.6,167.8z"></path>
	<path class="st0" d="M111.8,165.7v2.6H103v4.3h7.9v2.5H103v4.4h9v2.6h-11.8v-16.4H111.8z"></path>
	<path class="st0" d="M124,178.4l-1.6,3.7h-3l7.2-16.4h3l7.2,16.4h-3l-1.6-3.7H124z M131.1,175.8l-3-6.8l-3,6.8H131.1z"></path>
	<path class="st0" d="M146.1,182.1h-7.2v-16.4h6.4c1.1,0,2.1,0.1,2.9,0.4c0.8,0.3,1.4,0.6,1.8,1.1c0.8,0.8,1.1,1.8,1.1,2.9
		c0,1.3-0.4,2.2-1.2,2.9c-0.3,0.2-0.5,0.4-0.6,0.4c-0.1,0.1-0.3,0.1-0.6,0.3c1,0.2,1.8,0.7,2.4,1.4c0.6,0.7,0.9,1.6,0.9,2.6
		c0,1.1-0.4,2.2-1.2,3C149.9,181.6,148.3,182.1,146.1,182.1z M141.7,172.5h3.5c2,0,3-0.7,3-2c0-0.8-0.2-1.3-0.7-1.7
		c-0.5-0.3-1.2-0.5-2.3-0.5h-3.5V172.5z M141.7,179.5h4.3c1,0,1.8-0.2,2.3-0.5c0.5-0.3,0.8-0.9,0.8-1.8c0-1.5-1.2-2.2-3.5-2.2h-4
		V179.5z"></path>
	<path class="st0" d="M169,179.8c-1.7,1.6-3.7,2.4-6.2,2.4c-2.4,0-4.5-0.8-6.2-2.4c-1.7-1.6-2.5-3.6-2.5-6.1c0-2.4,0.8-4.4,2.5-6.1
		s3.7-2.4,6.2-2.4c2.4,0,4.5,0.8,6.2,2.4c1.7,1.6,2.5,3.6,2.5,6.1C171.5,176.2,170.7,178.2,169,179.8z M167,169.6
		c-1.1-1.2-2.5-1.7-4.1-1.7c-1.6,0-3,0.6-4.1,1.7c-1.1,1.2-1.7,2.6-1.7,4.2c0,1.7,0.6,3.1,1.7,4.2c1.1,1.2,2.5,1.7,4.1,1.7
		c1.6,0,3-0.6,4.1-1.7c1.1-1.2,1.7-2.6,1.7-4.2C168.7,172.1,168.1,170.7,167,169.6z"></path>
	<path class="st0" d="M178.5,178.3c0.8,0.9,1.8,1.3,3.1,1.3c1.3,0,2.3-0.4,3.1-1.3c0.8-0.9,1.1-2.1,1.1-3.6v-9.1h2.8v9.2
		c0,2.4-0.6,4.2-1.9,5.5c-1.3,1.3-3,1.9-5,1.9c-2,0-3.7-0.6-5-1.9c-1.3-1.3-1.9-3.1-1.9-5.5v-9.2h2.8v9.1
		C177.4,176.3,177.8,177.5,178.5,178.3z"></path>
	<path class="st0" d="M198.9,168.2v13.9h-2.8v-13.9h-5v-2.5h12.7v2.5H198.9z"></path>
	<path class="st0" d="M219.4,182.1h-2.8v-6.5l-6.1-9.9h3l4.5,7.5l4.5-7.5h3l-6.1,9.9V182.1z"></path>
	<path class="st0" d="M240.6,179.8c-1.7,1.6-3.7,2.4-6.2,2.4c-2.4,0-4.5-0.8-6.2-2.4c-1.7-1.6-2.5-3.6-2.5-6.1
		c0-2.4,0.8-4.4,2.5-6.1s3.7-2.4,6.2-2.4c2.4,0,4.5,0.8,6.2,2.4s2.5,3.6,2.5,6.1C243.1,176.2,242.3,178.2,240.6,179.8z M238.6,169.6
		c-1.1-1.2-2.5-1.7-4.1-1.7c-1.6,0-3,0.6-4.1,1.7c-1.1,1.2-1.7,2.6-1.7,4.2c0,1.7,0.6,3.1,1.7,4.2c1.1,1.2,2.5,1.7,4.1,1.7
		c1.6,0,3-0.6,4.1-1.7c1.1-1.2,1.7-2.6,1.7-4.2C240.2,172.1,239.7,170.7,238.6,169.6z"></path>
	<path class="st0" d="M250.1,178.3c0.8,0.9,1.8,1.3,3.1,1.3c1.3,0,2.3-0.4,3.1-1.3c0.8-0.9,1.1-2.1,1.1-3.6v-9.1h2.8v9.2
		c0,2.4-0.6,4.2-1.9,5.5c-1.3,1.3-3,1.9-5,1.9c-2,0-3.7-0.6-5-1.9c-1.3-1.3-1.9-3.1-1.9-5.5v-9.2h2.8v9.1
		C249,176.3,249.3,177.5,250.1,178.3z"></path>
	<path class="st0" d="M277.4,171c0,2.7-1.2,4.4-3.5,5.1l4.3,6h-3.5l-3.9-5.5H267v5.5h-2.8v-16.4h6.1c2.5,0,4.3,0.4,5.4,1.3
		C276.8,167.8,277.4,169.1,277.4,171z M273.7,173.3c0.6-0.5,0.8-1.3,0.8-2.3c0-1.1-0.3-1.8-0.9-2.2c-0.6-0.4-1.6-0.6-3.1-0.6H267
		v5.9h3.5C272,174.1,273.1,173.8,273.7,173.3z"></path>
	<path class="st0" d="M299.8,167.8c1.6,1.4,2.4,3.4,2.4,6s-0.8,4.6-2.3,6.1c-1.5,1.5-3.9,2.2-7,2.2h-5.4v-16.4h5.6
		C296,165.7,298.3,166.4,299.8,167.8z M299.4,173.9c0-3.8-2.2-5.6-6.5-5.6h-2.8v11.3h3.1c2,0,3.5-0.5,4.6-1.4
		C298.9,177.1,299.4,175.7,299.4,173.9z"></path>
	<path class="st0" d="M307.9,178.4l-1.6,3.7h-3l7.2-16.4h3l7.2,16.4h-3l-1.6-3.7H307.9z M315,175.8l-3-6.8l-3,6.8H315z"></path>
	<path class="st0" d="M327.7,168.2v13.9H325v-13.9h-5v-2.5h12.7v2.5H327.7z"></path>
	<path class="st0" d="M336.6,178.4l-1.6,3.7h-3l7.2-16.4h3l7.2,16.4h-3l-1.6-3.7H336.6z M343.7,175.8l-3-6.8l-3,6.8H343.7z"></path>
</g>
<g>
	<path class="st1" d="M120.7,92.1v31.2c0,11.7-7.3,20.3-20.6,20.3c-13.2,0-20.7-8.6-20.7-20.3V92.1h-9.5v31.2
		c0,17.5,12.2,29.7,30.2,29.7c18,0,30.2-12.2,30.2-29.7V92.1H120.7z"></path>
	<polygon class="st1" points="11.4,130.9 11.4,114.8 49.4,114.8 49.4,130.9 59,130.9 59,72.6 49.4,72.6 49.4,105.5 11.4,105.5
		11.4,72.6 1.8,72.6 1.8,130.9 	"></polygon>
	<path class="st1" d="M150,130.9V97.2c0-9.3,7.3-17.3,16.9-17.3c9.8,0,16.9,8,16.9,17.3v33.7h9.7V97.2c0-9.3,7.2-17.3,16.9-17.3
		c9.7,0,16.9,8,16.9,17.3v33.7h9.5V97.2c0-14.7-11.5-26.5-26.5-26.5c-9.5,0-17.4,4.8-21.8,11.9c-4.3-7.2-12.2-11.9-21.7-11.9
		c-15,0-26.6,11.8-26.6,26.5v33.7H150z"></path>
	<path class="st1" d="M308.9,79.4c17.4,0,31.6,14.2,31.6,31.6c0,17.4-14.2,31.6-31.6,31.6s-31.6-14.2-31.6-31.6
		C277.3,93.6,291.5,79.4,308.9,79.4 M308.9,70.6c-22.3,0-40.5,18.1-40.5,40.5c0,22.3,18.1,40.5,40.5,40.5
		c22.3,0,40.5-18.1,40.5-40.5C349.4,88.7,331.3,70.6,308.9,70.6L308.9,70.6z"></path>
	<rect x="248.8" y="92.1" class="st1" width="9.7" height="38.8"></rect>
</g>

<g>
	<path class="st1" d="M234.2,42.9L234.2,42.9c-0.1-5.3-2.1-9.8-5.4-12.5c0.2-1.3,0.3-2.5,0.3-3.8c0-2.2-0.3-4.4-1-6.6V3.7
		c0-0.7-0.3-1.4-0.8-1.8s-1.2-0.7-1.9-0.6l-2.1,0.2c-6.6,0.6-13.5,1-20.4,1.3c-4.5-1.7-9.3-2.6-14.2-2.6c-4.9,0-9.6,0.9-14.2,2.6
		c-6.9-0.3-13.8-0.7-20.4-1.3l-2.1-0.2c-0.7-0.1-1.4,0.2-1.9,0.6s-0.8,1.1-0.8,1.8v16.4c-0.7,2.1-1,4.3-1,6.6c0,1.2,0.1,2.5,0.3,3.8
		c-3.3,2.7-5.3,7.2-5.4,12.5c-0.3,13.3,8.3,25.6,8.6,26.1c0.6,0.8,1.5,1.2,2.4,1c0.9-0.2,1.7-0.8,2-1.7c0.4-1.2,0.9-2.4,1.6-3.7
		c7.5,9.3,18.8,14.8,30.8,14.8c12.1,0,23.3-5.4,30.8-14.8c0.7,1.3,1.2,2.5,1.6,3.7c0.3,0.9,1.1,1.6,2,1.7c1,0.2,1.9-0.2,2.4-1
		C225.9,68.5,234.5,56.2,234.2,42.9z"></path>
	<g>
		<path class="st2" d="M153.8,67.6c0,0-8.5-12.1-8.2-24.6c0.3-12.6,12-16.9,17.2-7.5C169.7,47.7,156.7,58.2,153.8,67.6z"></path>
		<path class="st2" d="M223.5,67.6c0,0,8.5-12.1,8.2-24.6c-0.3-12.6-12-16.9-17.2-7.5C207.6,47.7,220.7,58.2,223.5,67.6z"></path>
	</g>
	<circle class="st3" cx="188.7" cy="39.7" r="34.8"></circle>
	<path class="st2" d="M221.9,23.1h3.7V3.7l-2.1,0.2c-7,0.6-14,1.1-21.1,1.3c-4.3-1.7-8.9-2.7-13.8-2.7c-4.9,0-9.5,0.9-13.8,2.7
		c-7.1-0.3-14.1-0.7-21.1-1.3l-2.1-0.2v19.5h3.7c-2.5,5-3.9,10.6-3.9,16.6c0,20.5,16.7,37.2,37.2,37.2c20.5,0,37.2-16.7,37.2-37.2
		C225.8,33.7,224.4,28.1,221.9,23.1z M188.7,73.1c-18.4,0-33.4-15-33.4-33.4c0-18.4,15-33.4,33.4-33.4c18.4,0,33.4,15,33.4,33.4
		C222.1,58.1,207.1,73.1,188.7,73.1z"></path>
	<path class="st1" d="M170.6,10.5c-8.9,0-16.1,7.2-16.1,16.1c0,8.9,7.2,16.1,16.1,16.1c8.9,0,16.1-7.2,16.1-16.1
		C186.7,17.8,179.5,10.5,170.6,10.5z"></path>
	<path class="st1" d="M206.7,10.5c-8.9,0-16.1,7.2-16.1,16.1c0,8.9,7.2,16.1,16.1,16.1s16.1-7.2,16.1-16.1
		C222.8,17.8,215.6,10.5,206.7,10.5z"></path>
	<path class="st4" d="M188.7,35c-1.6,3.4-4.1,6.3-7.3,8.4l7.3,7.3l7.3-7.3C192.8,41.3,190.2,38.4,188.7,35z"></path>
	<g>
		<path class="st4" d="M172.8,71.7c0-0.7-0.5-1.2-1.2-1.2h-0.8c-0.7,0-1.2,0.5-1.2,1.2v8.4c0,0.7,0.5,1.2,1.2,1.2h0.8
			c0.7,0,1.2-0.5,1.2-1.2V71.7z"></path>
		<path class="st4" d="M161.3,80.1c0,0.7,0.5,1.2,1.2,1.2h0.8c0.7,0,1.2-0.5,1.2-1.2v-8.4c0-0.7-0.5-1.2-1.2-1.2h-0.8
			c-0.7,0-1.2,0.5-1.2,1.2V80.1z"></path>
		<path class="st4" d="M167.4,70.5h-0.8c-0.7,0-1.2,0.5-1.2,1.2v8.4c0,0.7,0.5,1.2,1.2,1.2h0.8c0.7,0,1.2-0.5,1.2-1.2v-8.4
			C168.6,71.1,168.1,70.5,167.4,70.5z"></path>
	</g>
	<path id="owl_right_eye" transform="translate(-5.999951206258695,0.02419757249872789)" d="M206.7,19.9c-3.7,0-6.8,3-6.8,6.8s3,6.8,6.8,6.8s6.8-3,6.8-6.8S210.4,19.9,206.7,19.9z M208.1,28.4c-1.5,0-2.6-1.2-2.6-2.6
		s1.2-2.6,2.6-2.6c1.4,0,2.6,1.2,2.6,2.6S209.5,28.4,208.1,28.4z"></path>
	<path class="st0" d="M206.7,6.8c-8,0-14.9,4.8-18,11.6c-3.2-6.8-10-11.6-18-11.6c-11,0-19.9,8.9-19.9,19.9c0,11,8.9,19.9,19.9,19.9
		c8,0,14.9-4.8,18-11.6c3.2,6.8,10,11.6,18,11.6c11,0,19.9-8.9,19.9-19.9C226.6,15.7,217.7,6.8,206.7,6.8z M170.6,42.8
		c-8.9,0-16.1-7.2-16.1-16.1c0-8.9,7.2-16.1,16.1-16.1c8.9,0,16.1,7.2,16.1,16.1C186.7,35.5,179.5,42.8,170.6,42.8z M206.7,42.8
		c-8.9,0-16.1-7.2-16.1-16.1c0-8.9,7.2-16.1,16.1-16.1s16.1,7.2,16.1,16.1C222.8,35.5,215.6,42.8,206.7,42.8z"></path>
	<path class="st1" d="M171.6,69.5h-0.8c-0.7,0-1.3,0.3-1.7,0.8c-0.4-0.5-1-0.8-1.7-0.8h-0.8c-0.7,0-1.3,0.3-1.7,0.8
		c-0.4-0.5-1-0.8-1.7-0.8h-0.8c-1.2,0-2.2,1-2.2,2.2v8.4c0,1.2,1,2.2,2.2,2.2h0.8c0.7,0,1.3-0.3,1.7-0.8c0.4,0.5,1,0.8,1.7,0.8h0.8
		c0.7,0,1.3-0.3,1.7-0.8c0.4,0.5,1,0.8,1.7,0.8h0.8c1.2,0,2.2-1,2.2-2.2v-8.4C173.8,70.5,172.8,69.5,171.6,69.5z M163.2,81.3h-0.8
		c-0.7,0-1.2-0.5-1.2-1.2v-8.4c0-0.7,0.5-1.2,1.2-1.2h0.8c0.7,0,1.2,0.5,1.2,1.2v8.4C164.4,80.8,163.9,81.3,163.2,81.3z M167.4,81.3
		h-0.8c-0.7,0-1.2-0.5-1.2-1.2v-8.4c0-0.7,0.5-1.2,1.2-1.2h0.8c0.7,0,1.2,0.5,1.2,1.2v8.4C168.6,80.8,168.1,81.3,167.4,81.3z
		 M172.8,80.1c0,0.7-0.5,1.2-1.2,1.2h-0.8c-0.7,0-1.2-0.5-1.2-1.2v-8.4c0-0.7,0.5-1.2,1.2-1.2h0.8c0.7,0,1.2,0.5,1.2,1.2V80.1z"></path>
	<g>
		<path class="st4" d="M216.1,71.7c0-0.7-0.5-1.2-1.2-1.2h-0.8c-0.7,0-1.2,0.5-1.2,1.2v8.4c0,0.7,0.5,1.2,1.2,1.2h0.8
			c0.7,0,1.2-0.5,1.2-1.2V71.7z"></path>
		<path class="st4" d="M204.5,80.1c0,0.7,0.5,1.2,1.2,1.2h0.8c0.7,0,1.2-0.5,1.2-1.2v-8.4c0-0.7-0.5-1.2-1.2-1.2h-0.8
			c-0.7,0-1.2,0.5-1.2,1.2V80.1z"></path>
		<path class="st4" d="M210.7,70.5h-0.8c-0.7,0-1.2,0.5-1.2,1.2v8.4c0,0.7,0.5,1.2,1.2,1.2h0.8c0.7,0,1.2-0.5,1.2-1.2v-8.4
			C211.9,71.1,211.3,70.5,210.7,70.5z"></path>
	</g>
	<path class="st1" d="M214.8,69.5h-0.8c-0.7,0-1.3,0.3-1.7,0.8c-0.4-0.5-1-0.8-1.7-0.8h-0.8c-0.7,0-1.3,0.3-1.7,0.8
		c-0.4-0.5-1-0.8-1.7-0.8h-0.8c-1.2,0-2.2,1-2.2,2.2v8.4c0,1.2,1,2.2,2.2,2.2h0.8c0.7,0,1.3-0.3,1.7-0.8c0.4,0.5,1,0.8,1.7,0.8h0.8
		c0.7,0,1.3-0.3,1.7-0.8c0.4,0.5,1,0.8,1.7,0.8h0.8c1.2,0,2.2-1,2.2-2.2v-8.4C217.1,70.5,216.1,69.5,214.8,69.5z M206.5,81.3h-0.8
		c-0.7,0-1.2-0.5-1.2-1.2v-8.4c0-0.7,0.5-1.2,1.2-1.2h0.8c0.7,0,1.2,0.5,1.2,1.2v8.4C207.7,80.8,207.2,81.3,206.5,81.3z M210.7,81.3
		h-0.8c-0.7,0-1.2-0.5-1.2-1.2v-8.4c0-0.7,0.5-1.2,1.2-1.2h0.8c0.7,0,1.2,0.5,1.2,1.2v8.4C211.9,80.8,211.3,81.3,210.7,81.3z
		 M216.1,80.1c0,0.7-0.5,1.2-1.2,1.2h-0.8c-0.7,0-1.2-0.5-1.2-1.2v-8.4c0-0.7,0.5-1.2,1.2-1.2h0.8c0.7,0,1.2,0.5,1.2,1.2V80.1z"></path>
	<path id="owl_left_eye" d="M170.6,19.9c-3.7,0-6.8,3-6.8,6.8s3,6.8,6.8,6.8s6.8-3,6.8-6.8S174.3,19.9,170.6,19.9z M172,28.4c-1.5,0-2.6-1.2-2.6-2.6
		s1.2-2.6,2.6-2.6c1.4,0,2.6,1.2,2.6,2.6S173.4,28.4,172,28.4z" transform="translate(-5.999910371644269,0.03279530813280082)"></path>
</g>
</svg>
