<?xml version="1.0" encoding="UTF-8" standalone="no"?><!DOCTYPE svg PUBLIC "-//W3C//DTD SVG 1.1//EN" "http://www.w3.org/Graphics/SVG/1.1/DTD/svg11.dtd"><svg width="100%" height="100%" viewBox="0 0 146 101" version="1.1" xmlns="http://www.w3.org/2000/svg" xmlns:xlink="http://www.w3.org/1999/xlink" xml:space="preserve" style="fill-rule:evenodd;clip-rule:evenodd;stroke-linecap:round;stroke-linejoin:round;stroke-miterlimit:1.5;"><g><g opacity="0.431216"><path d="M16.381,64.043l15.381,8.88l0,17.761l-15.381,8.88l-15.381,-8.88l0,-17.761l15.381,-8.88Z" style="fill:none;stroke:#3ca550;stroke-width:2px;"/><path d="M35.762,31.521l15.382,8.881l0,17.761l-15.382,8.88l-15.381,-8.88l0,-17.761l15.381,-8.881Z" style="fill:none;stroke:#3ca550;stroke-width:2px;"/><path d="M73.762,31.521l15.382,8.881l0,17.761l-15.382,8.88l-15.381,-8.88l0,-17.761l15.381,-8.881Z" style="fill:none;stroke:#3ca550;stroke-width:2px;"/><path d="M111.144,31.521l15.381,8.881l0,17.761l-15.381,8.88l-15.382,-8.88l0,-17.761l15.382,-8.881Z" style="fill:none;stroke:#c2ffbc;stroke-width:2px;"/><path d="M129.525,63.043l15.381,8.88l0,17.761l-15.381,8.88l-15.381,-8.88l0,-17.761l15.381,-8.88Z" style="fill:none;stroke:#3ca550;stroke-width:2px;"/><path d="M92.762,1l15.382,8.88l0,17.761l-15.382,8.88l-15.381,-8.88l0,-17.761l15.381,-8.88Z" style="fill:none;stroke:#3ca550;stroke-width:2px;"/></g></g></svg>