<?xml version="1.0" encoding="UTF-8" standalone="no"?><!DOCTYPE svg PUBLIC "-//W3C//DTD SVG 1.1//EN" "http://www.w3.org/Graphics/SVG/1.1/DTD/svg11.dtd"><svg width="100%" height="100%" viewBox="0 0 80 38" version="1.1" xmlns="http://www.w3.org/2000/svg" xmlns:xlink="http://www.w3.org/1999/xlink" xml:space="preserve" style="fill-rule:evenodd;clip-rule:evenodd;stroke-linejoin:round;stroke-miterlimit:1.41421;"><path d="M21.936,19.642c0,0.7 -0.1,1.9 -1.1,1.9c-1,0 -1.3,-1 -1.7,-1.8l-2.1,5.3c1.4,1.1 3.3,1.9 5.1,1.9c3.4,0 5.8,-2.5 5.8,-5.9l0,-11.6l-6.1,0l0.1,10.2Zm18,-10.2l-1.2,2.9l-0.6,1.6l-0.2,0l-1.9,-4.5l-7,0l6,9.7l0,7.4l6.1,0l0,-7.4l5.9,-9.7l-7.1,0l0,0Zm15.1,6.4l-1.4,-0.3c-0.5,-0.1 -1.2,-0.2 -1.2,-0.8c0,-0.7 0.8,-0.9 1.3,-0.9c1.3,0 2.5,0.6 3.6,1.3l1.7,-4.4c-1.7,-1 -3.5,-1.5 -5.4,-1.5c-3.7,0 -7.4,2.3 -7.4,6.3c0,2.7 2,4.1 4.5,4.5l1.2,0.2c0.6,0.1 1.4,0.2 1.4,1c0,0.8 -1,1 -1.6,1c-1.4,0 -2.8,-0.7 -3.9,-1.6l-0.3,-0.2l-1.9,4.8c1.9,1 4.4,1.6 6.6,1.6c3.7,0 7.4,-2 7.4,-6.1c0,-2.9 -1.9,-4.3 -4.6,-4.9l0,0Zm17.8,1.9l5.4,-8.3l-6.8,0l-3,5.5c-0.3,0.6 -0.7,1.2 -0.9,1.9l-0.1,0l0.1,-7.4l-6.1,0l0,17.1l6.1,0l-0.1,-7.2l0.1,0c0.1,0.7 0.7,1.3 1,2l3,5.2l7.2,0l-5.9,-8.8l0,0Zm-64.6,-9.6c0.2,-0.2 0.2,-0.4 0.2,-0.6c0,-0.4 -0.2,-0.8 -0.6,-1.2c-0.3,-0.3 -0.8,-0.5 -1.2,-0.5c-0.3,0 -0.5,0.1 -0.6,0.3c-0.2,0.2 -0.2,0.4 -0.2,0.6c0,0.4 0.2,0.8 0.6,1.1c0.6,0.6 1.4,0.7 1.8,0.3l0,0Zm10.6,1.2c-0.1,-0.2 -1.5,-1.6 -3.2,-2.9c-1.7,-1.3 -4.1,-2.3 -4.1,-2.3c0,0 -1.9,-2.6 -5.9,-2.6c-2.1,0 -3.8,0.6 -4.9,1.1l0,2.6c1.2,-0.9 3,-1.6 4.8,-1.6c4.9,0.2 5.3,3.4 5.4,4.8c0.1,1.5 -0.4,2.6 -1.4,3.4c-1,0.8 -3.7,0.8 -4.7,1.1c-1,0.2 -2.5,1.2 -2.5,3.2c0,2 1.5,4.4 4,7.6c2.4,3.2 3.6,7.3 3.4,10.5c0,0.3 0,0.5 -0.1,0.8c0,0 -0.1,1 -0.3,1.9l2.1,0c0,0 0.3,-1.3 0.3,-3c0.3,-8 -4.9,-13.2 -5.4,-13.8c-0.5,-0.6 -1.7,-2.3 -1.6,-3.7c0.1,-2 2.6,-1.3 4.8,-2c2.2,-0.8 3.6,-3.2 3.6,-3.2c2.1,0 4.2,-0.4 5.2,-0.7c0.9,-0.2 0.6,-1 0.5,-1.2Zm-3.5,0.2c-1,0 -2.2,-0.2 -2.2,-0.2c0,0 -0.5,-1.1 -0.2,-2.1c0,0 2.7,1.5 3.2,1.9c0,0 0.2,0.4 -0.8,0.4l0,0Z" style="fill:#034694;fill-rule:nonzero;"/></svg>