<svg id="klarna.svg" xmlns="http://www.w3.org/2000/svg" width="500" height="333" viewBox="0 0 500 333">
  <defs>
    <style>
      .cls-1 {
        fill: #fff;
        opacity: 0.01;
      }

      .cls-2 {
        fill: #0074c8;
        fill-rule: evenodd;
      }
    </style>
  </defs>
  <rect id="Rectangle_15_copy_17" data-name="Rectangle 15 copy 17" class="cls-1" width="500" height="333"/>
  <path class="cls-2" d="M374.456,168.265c0.174,16.027.066,32.039,0.066,48.033,0,3.753-.439,4.178-4.263,4.178q-6.633.038-13.289,0c-3.459,0-3.848-.375-3.848-3.761,0-15.546.049-31.083-.05-46.636a42.98,42.98,0,0,0-.83-7.764c-0.672-3.7-3.177-5.809-6.752-6.4-6.5-1.081-12.335.982-17.776,4.344-0.722.45-1,2.072-1,3.154-0.074,13.082-.049,26.164-0.049,39.246,0,4.927-.059,9.836.024,14.746,0.042,2.255-.945,3.121-3.135,3.1-4.9-.092-9.805-0.025-14.707-0.042-2.837-.017-3.617-0.816-3.617-3.72q-0.012-37.112,0-74.213c0-2.605.78-3.421,3.385-3.437,4.421-.042,8.833-0.034,13.288-0.009,2.8,0.017,3.285.541,3.351,3.337,0.017,1.074.116,2.131,0.183,3.837,1.452-.924,2.3-1.44,3.143-2.006,8.636-5.875,18.225-7.306,28.287-5.517,9.215,1.614,14.233,7.8,16.1,16.577A63.9,63.9,0,0,1,374.456,168.265Zm-135.639-5.409c0.473,18.125.382,36.283,0.49,54.432,0.008,2.421-.872,3.213-3.352,3.229-4.272.017-8.535,0.009-12.8,0-3.616,0-4.064-.449-4.247-4.027-0.016-.391-0.091-0.774-0.19-1.532-2.431,1.357-4.5,2.655-6.67,3.711a31.627,31.627,0,0,1-23.474,1.674c-7.183-2.148-11.58-7.108-13.338-14.389a36.187,36.187,0,0,1-.324-15.778c1.642-8.1,7.092-12.607,14.674-14.888,7.341-2.23,14.9-2.479,22.479-2.4,5.425,0.066,5.433.016,5.417-5.5a23.591,23.591,0,0,0-.158-4.269c-0.813-4.444-3.783-7.215-8.676-7.215-8.2,0-16.4.349-24.587,0.815-4.014.242-4.545,0.042-4.545-4.027,0-2.855.05-5.718-.017-8.555-0.033-1.59.589-2.68,2.1-3,12.716-2.721,25.5-4.6,38.4-1.39C231.625,142.617,238.5,150.731,238.817,162.856Zm-20.828,36.8a57.045,57.045,0,0,1-.042-5.718c0-2.455.092-4.918-.066-7.364a2.267,2.267,0,0,0-1.319-1.673c-4.944.175-9.913,0.308-14.823,0.915a6.774,6.774,0,0,0-5.823,5.6,31.762,31.762,0,0,0-.5,8.688c0.266,3.162,2.538,5.01,5.641,5.542,4.985,0.866,9.68-.108,14.325-1.913C217.383,202.966,218.237,201.852,217.989,199.655Zm231.959-32.314q0.062,24.741.016,49.49c0,3.27-.406,3.645-3.716,3.645-4.114.025-8.212,0.025-12.326,0-3.534,0-3.758-.209-3.94-3.662a7.188,7.188,0,0,0-.141-1.2,2.491,2.491,0,0,0-.406-0.608,8.314,8.314,0,0,0-1.36.649c-5.509,4.12-11.846,5.726-18.573,6.25-13.314,1.082-23.492-7.706-24.122-21.087a50.5,50.5,0,0,1,.249-9.895c1.211-7.806,6.006-12.99,13.4-15.079a112.671,112.671,0,0,1,17.187-2.913,76.014,76.014,0,0,1,10.195-.067c1.493,0.051,2.232-.465,2.148-2.03a61.226,61.226,0,0,0-.307-7.107c-0.887-5.2-3.824-7.905-9.066-7.889-8.121.05-16.241,0.417-24.37,0.874-4.081.217-4.662-.108-4.662-4.318,0-2.614.008-5.235,0-7.848a3.3,3.3,0,0,1,2.936-3.645,100.676,100.676,0,0,1,28.642-2.688,47.78,47.78,0,0,1,12,2.438c9.183,3.071,14.251,9.845,15.728,19.332A49.906,49.906,0,0,1,449.948,167.341Zm-20.895,33.071c-0.1-2.156-.017-4.286-0.033-6.416,0-2.28-.041-4.594.033-6.891,0.033-1.564-.506-2.354-2.189-2.279-2.995.066-6.023-.176-9,0.057-9.979.758-11.787,4.478-11.912,12.708-0.066,4.844,2.183,7.456,6.023,8.114,5.333,0.874,10.318-.233,15.171-2.389A2.738,2.738,0,0,0,429.053,200.412ZM159.5,111H145.748c-3.442.008-3.766,0.349-3.766,3.844V217.131c0,2.854.49,3.328,3.293,3.345,4.5,0.025,9,0,13.513,0,4.238,0,4.628-.375,4.628-4.569V129.086c0-4.76.008-9.512,0-14.272C163.408,111.577,162.811,111.011,159.5,111Zm133.756,27.112a30.129,30.129,0,0,0-16.739,5.834c-0.68.5-1.36,0.957-2.381,1.689-0.083-1.14-.174-1.814-0.174-2.5-0.067-3.412-.664-4.044-3.99-4.044-4.289-.017-8.535-0.008-12.808-0.008-3.906.008-4.553,0.64-4.553,4.544v32.82q0,19.9,0,39.728c0,3.513.771,4.295,4.1,4.295,4.5,0.025,9.015.025,13.52,0,3.633,0,4.214-.55,4.214-4.311q0.012-26.374-.033-52.818a3.3,3.3,0,0,1,2.1-3.487c5.276-2.488,10.685-4.352,16.615-4.111,2.174,0.091,3.227-.732,3.177-3.037-0.091-3.895-.075-7.765-0.008-11.651C296.3,138.939,295.355,138.032,293.257,138.115ZM69.4,111.011c-4.189-.025-8.378-0.041-12.575.009-4.4.066-6.827,2.579-6.827,7.007v98.745c0,2.9.39,3.3,3.293,3.3q6.4,0.049,12.8,0c4.48-.033,6.727-2.272,6.727-6.741V114.581C72.827,111.693,72.222,111.036,69.4,111.011Zm47.115,74.647A51.44,51.44,0,0,0,83.81,169.547c-3.965-.075-4-0.075-3.89,2.928a29.574,29.574,0,0,0,.423,3.3,52.025,52.025,0,0,0,47.272,44.53c2.846,0.274,3.327.075,3.045-2.721C129.441,205.4,125.019,194.586,116.517,185.658Zm11.165-74.38c-1.087.174-2.215,0.108-3.293,0.274A52.237,52.237,0,0,0,79.945,159c-0.257,3.012-.091,3.021,3.069,3.429,4.338-1.074,8.851-1.732,13-3.313,20.712-7.889,32.043-23.2,34.656-45.17C131,111.161,130.535,110.845,127.682,111.278Z"/>
</svg>
