<?xml version="1.0" encoding="UTF-8" standalone="no"?><!DOCTYPE svg PUBLIC "-//W3C//DTD SVG 1.1//EN" "http://www.w3.org/Graphics/SVG/1.1/DTD/svg11.dtd"><svg width="100%" height="100%" viewBox="0 0 513 513" version="1.1" xmlns="http://www.w3.org/2000/svg" xmlns:xlink="http://www.w3.org/1999/xlink" xml:space="preserve" style="fill-rule:evenodd;clip-rule:evenodd;stroke-linejoin:round;stroke-miterlimit:1.41421;"><g id="g6"><clipPath id="_clip1"><circle cx="256.285" cy="256.54" r="252.549"/></clipPath><g clip-path="url(#_clip1)"><rect x="-33.55" y="-29.262" width="571.379" height="571.379" style="fill:#ff0003;"/><rect x="67.901" y="118.906" width="375.817" height="294.113" style="fill:#fff;"/><path id="path10" d="M57.093,58.917l0,392.301l392.307,0l0,-392.301l-392.307,0l0,0Zm366.205,163.068c-0.645,12.22 -4.536,27.453 -7.964,37.631c-13.794,40.984 -29.788,66.392 -66.828,66.392c-10.904,0 -30.25,-2.892 -37.379,-22.294l-1.688,-4.603l-3.036,3.846c-11.583,14.672 -28.797,23.138 -47.218,23.225c-14.133,0.065 -25.489,-4.668 -32.837,-13.698l-2.014,-2.477l-2.146,2.367c-7.847,8.663 -21.512,13.632 -37.492,13.632c-12.548,0 -23.383,-4.267 -30.511,-11.999l-1.941,-2.11l-2.02,2.04c-7.925,8.001 -20.412,12.032 -36.114,11.665c-19.049,-0.455 -30.646,-11.084 -31.022,-28.45c-0.575,-26.771 25.335,-83.101 36.06,-100.227c6.963,-11.441 16.538,-16.987 29.283,-16.987c8.674,0 14.608,1.812 18.131,5.546c3.21,3.398 3.844,6.262 4.13,13.152l0.367,8.907l4.702,-7.575c11.373,-18.324 30.223,-20.855 48.898,-20.855c12.984,0 24.315,4.775 28.865,12.164l1.681,2.724l2.429,-2.067c9.625,-8.181 23.203,-12.683 38.235,-12.683c16.409,0 28.332,4.079 35.443,12.125c1.616,1.826 2.685,3.102 4.169,6.225l1.826,3.832l2.741,-3.24c10.414,-12.316 24.629,-18.558 42.269,-18.558c13.971,0 24.578,3.714 31.519,11.039c8.708,9.177 9.951,22.093 9.462,31.311l0,0Z" style="fill:#f6ec36;fill-rule:nonzero;stroke:#ff0003;stroke-width:1px;"/><path id="path12" d="M57.093,58.917l0,392.301l392.307,0l0,-392.301l-392.307,0l0,0Zm377.253,178.119c-1.776,14.276 -11.424,40.728 -16.549,51.299c-13.755,28.34 -32.13,50.113 -67.537,50.113c-18.914,0 -34.473,-6.032 -43.571,-17.627c-13.323,11.676 -29.813,17.792 -47.568,17.792c-13.679,0 -25.768,-3.95 -34.986,-11.255c-10.173,7.168 -23.902,11.165 -39.116,11.165c-12.708,0 -24.143,-3.49 -33.092,-9.939c-9.901,6.57 -22.876,9.835 -38.106,9.474c-25.341,-0.598 -42.839,-16.673 -43.341,-40.011c-0.662,-31.002 25.445,-87.744 37.75,-107.392c6.779,-11.139 16.187,-18.488 27.553,-21.589c4.07,-1.111 8.39,-1.676 12.931,-1.676c18.693,0 25.468,5.338 28.803,12.136c14.423,-12.249 33.542,-12.953 47.154,-12.953c15.025,0 24.454,3.989 32.472,10.372c11.076,-6.643 23.781,-10.097 38.914,-10.097c19.349,0 33.723,4.5 43.75,14.411c11.693,-9.731 26.337,-14.167 42.726,-14.167c21.672,0 35.932,7.816 44.306,19.47c11.791,16.436 9.681,32.982 7.507,50.474l0,0Z" style="fill:#ff0003;fill-rule:nonzero;"/><path id="path16" d="M432.43,175.57l0,-2.707l1.838,0c1.343,0 2.042,0.471 2.042,1.344c0,0.693 -0.449,1.363 -1.815,1.363l-2.065,0l0,0Zm6.595,5.616l-1.144,-1.986c-0.993,-1.736 -1.268,-2.011 -2.118,-2.309l0,-0.053c1.672,-0.196 2.665,-1.271 2.665,-2.758c0,-1.571 -0.993,-2.76 -3.111,-2.76l-4.921,0l0,9.872l2.04,0l0,-4.043l0.373,0c0.872,0 1.22,0.099 1.616,0.494c0.398,0.404 0.993,1.243 1.343,1.936l0.797,1.613l2.46,-0.006l0,0Zm-4.856,-12.615c4.236,0 7.679,3.417 7.679,7.647c0,4.231 -3.448,7.662 -7.679,7.662c-4.225,0 -7.63,-3.437 -7.63,-7.662c0,-4.225 3.405,-7.647 7.63,-7.647Zm0,-1.88c-5.265,0 -9.516,4.253 -9.516,9.527c0,5.271 4.251,9.522 9.516,9.522c5.283,0 9.53,-4.251 9.53,-9.522c0.006,-5.28 -4.247,-9.527 -9.53,-9.527Z" style="fill-rule:nonzero;"/><path id="path18" d="M382.317,176.894c-20.549,0 -34.748,8.147 -44.359,19.528c-1.624,-3.405 -2.859,-4.898 -4.595,-6.864c-7.869,-8.893 -20.516,-13.043 -37.491,-13.043c-16.586,0 -30.414,5.179 -40.014,13.337c-4.985,-8.107 -16.869,-13.474 -31.199,-13.474c-18.723,0 -39.124,2.648 -51.229,22.151c-0.292,-7.022 -0.926,-10.739 -4.873,-14.916c-4.797,-5.078 -12.56,-6.402 -20.123,-6.402c-13.78,0 -24.141,6.021 -31.606,18.277c-10.826,17.29 -37.065,74.177 -36.473,101.732c0.385,17.797 12.324,30.623 33.693,31.128c16.698,0.401 29.793,-4.065 38.126,-12.475c7.476,8.124 18.883,12.888 32.531,12.888c15.197,0 30.489,-4.565 39.522,-14.538c7.609,9.348 19.579,14.787 34.978,14.711c20.129,-0.098 37.808,-9.644 49.355,-24.272c6.338,17.248 22.402,24.099 39.952,24.099c38.459,0 55.348,-26.45 69.428,-68.261c3.17,-9.418 7.404,-25.145 8.105,-38.355c1.159,-21.991 -8.144,-45.251 -43.728,-45.251l0,0Zm-255.9,105.132c19.899,-3.456 24.901,3.737 24.275,10.399c-1.877,19.944 -20.173,24.404 -36.06,24.031c-11.522,-0.28 -21.882,-5.554 -22.171,-18.931c-0.505,-23.402 23.363,-77.543 34.599,-95.489c5.19,-8.52 11.513,-12.734 21.596,-12.734c9.555,0 11.922,4.907 11.782,10.784c-0.376,15.68 -25.708,63.329 -34.021,81.94l0,0Zm64.799,-18.381c-1.315,3.563 -3.807,11.025 -5.824,18.936c6.531,-1.633 11.429,-2.766 19.82,-2.564c9.561,0.236 15.671,4.197 15.671,12.103c0,19.166 -21.183,24.793 -35.878,24.793c-16.134,0 -30.307,-9.187 -30.307,-26.83c0,-20.684 11.214,-52.048 21.737,-72.943c12.921,-25.658 26.123,-29.069 48.867,-29.069c9.993,0 21.509,4.275 21.509,13.713c0,13.078 -11.082,18.066 -22.067,18.697c-4.691,0.27 -11.912,0.528 -16.232,0.222c0,0 -3.656,5.569 -7.541,15.494c20.344,-2.864 28.971,1.753 25.537,13.522c-4.648,15.898 -18.423,16.945 -35.292,13.926l0,0Zm100.063,-49.465c-5.501,0 -9.101,3.485 -11.777,7.247c-5.897,8.281 -18.673,41.466 -20.662,55.097c-1.363,9.337 2.668,11.239 7.076,11.239c7.069,0 14.994,-7.479 17.699,-19.817c0,0 -13.458,-0.329 -9.749,-12.263c3.605,-11.58 10.445,-14.088 21.781,-14.554c22.334,-0.912 20.129,15.578 18.342,24.373c-5.804,28.559 -26.13,51.493 -54.879,51.493c-19.683,0 -31.901,-10.888 -31.901,-30.958c0,-14.301 7.095,-36.753 12.72,-49.89c11.971,-27.964 24.525,-47.535 56.509,-47.535c19.189,0 34.324,6.896 32.105,24.873c-1.627,13.193 -8.231,20.942 -20.227,21.879c-3.355,0.261 -17.082,-0.087 -12.529,-13.073c1.586,-4.542 2.242,-8.111 -4.508,-8.111l0,0Zm120.792,23.602c-3.38,16.838 -10.986,36.753 -19.242,51.597c-13.469,24.218 -29.83,27.61 -44.109,27.439c-14.288,-0.171 -30.383,-5.445 -30.506,-27.479c-0.087,-15.819 6.736,-38.147 12.529,-52.783c10.096,-26.533 20.415,-48.168 53.033,-47.778c38.038,0.451 31.255,34.279 28.295,49.004Zm-32.267,-23.049c-3.266,-0.045 -6.116,0.595 -8.678,4.545c-5.753,7.454 -22.575,53.42 -22.277,62.588c0.106,3.293 1.927,6.174 5.984,6.174c4.654,0.006 7.24,-3.212 9.527,-7.094c5.294,-8.958 20.179,-49.588 20.589,-59.746c0.12,-2.96 -0.374,-6.408 -5.145,-6.467l0,0Z" style="fill-rule:nonzero;"/></g></g></svg>