<svg id="Layer_1" data-name="Layer 1" xmlns="http://www.w3.org/2000/svg" viewBox="0 0 494.2 51.4"><defs><style>.cls-1{fill:#fff;}.cls-2{fill:#ff7800;}</style></defs><title>trifork_logo_black</title><path class="cls-1" d="M0,.6H62.1V13.1H39.2V50.9H22.9V13.1H0Z"/><path class="cls-1" d="M69.3.6h49.2c12.6,0,15.9,5.9,15.9,14.9v3.2c0,6.7-1.6,10.7-9.1,12.4v.1c4.8.8,8.9,2.9,8.9,11.1v8.5H117.9v-6c0-5.3-1.6-7-6.7-7H85.6V50.9H69.3ZM85.6,25.3h27c4.4,0,6-1.7,6-5.3V18.3c0-4.5-2.4-5.3-7.5-5.3H85.6Z"/><path class="cls-1" d="M146.3.6h16.3V50.9H146.3Z"/><path class="cls-1" d="M174.5.6H230V12.7H190.8v9.4h37.4V33.8H190.8V51H174.5V.6Z"/><path class="cls-1" d="M238.7,18.2C238.7,3.5,247.4,0,262.1,0h26.1c14.7,0,23.4,3.5,23.4,18.2v15c0,14.7-8.7,18.2-23.4,18.2H262.1c-14.7,0-23.4-3.5-23.4-18.2v-15Zm16.8,10.3c0,7.3,1.6,10.1,9.3,10.1h20.9c7.7,0,9.3-2.8,9.3-10.1V23.1c0-6.3-1.6-10.1-10.2-10.1H265.7c-8.6,0-10.2,3.8-10.2,10.1v5.4Z"/><path class="cls-1" d="M321.6.6h49.2c12.6,0,15.9,5.9,15.9,14.9v3.2c0,6.7-1.6,10.7-9.1,12.4v.1c4.8.8,8.9,2.9,8.9,11.1v8.5H370.2v-6c0-5.3-1.6-7-6.7-7H337.9V50.9H321.6Zm16.3,24.7h27c4.4,0,6-1.7,6-5.3V18.3c0-4.5-2.3-5.3-7.5-5.3H337.9Z"/><path class="cls-1" d="M397.7.6H414V19.1h7.6L442.2.6h22.2L435.6,25.2l32.2,25.7H444.7L421.2,31.6H414V50.9H397.7Z"/><path class="cls-2" d="M478.8,36.7h15.4V50.9H478.8Z"/></svg>